<svg width="121" height="86" viewBox="0 0 121 86" fill="none" xmlns="http://www.w3.org/2000/svg">
<path fill-rule="evenodd" clip-rule="evenodd" d="M103.708 56.89C103.444 57.2941 103.373 57.8107 103.495 58.4371C103.608 58.9333 103.787 59.3266 104.034 59.6217C104.282 59.9167 104.558 60.1173 104.86 60.2264C105.163 60.333 105.452 60.3571 105.731 60.2932C106.065 60.2165 106.339 60.0189 106.553 59.703C106.768 59.3898 106.847 58.9675 106.794 58.4382C106.783 58.3528 106.769 58.2734 106.752 58.1977C106.698 57.9626 106.608 57.7412 106.483 57.5336C106.357 57.3261 106.197 57.1484 106.001 57.0011C106.188 56.8343 106.375 56.7283 106.56 56.6857C106.818 56.6265 107.064 56.6663 107.302 56.8068C107.54 56.9446 107.748 57.1525 107.924 57.4283C108.101 57.7035 108.228 58.0124 108.306 58.3546C108.385 58.6968 108.4 59.0506 108.354 59.4159C108.305 59.7818 108.172 60.1228 107.954 60.4423C107.736 60.7591 107.42 61.027 107.002 61.241C106.864 61.3029 106.723 61.3518 106.577 61.3854C106.323 61.4436 106.071 61.4649 105.821 61.4381C105.019 61.352 104.198 61.2856 103.621 60.6022C101.275 57.8182 103.804 56.7425 103.708 56.89ZM38.9226 27.7696C41.3808 40.5595 49.8193 50.8616 60.5371 54.1308C71.2543 50.8616 79.6932 40.5595 82.1515 27.7696C79.1261 25.637 79.7581 23.1978 80.3699 20.8358C81.0018 18.3954 81.6551 15.8743 79.3499 12.6189C69.4084 15.2723 62.0823 11.6451 60.5371 10.7805C60.2412 10.946 59.7329 11.2129 59.0357 11.5173L58.5475 10.8119L58.5417 10.8043C58.5403 10.8027 58.539 10.8009 58.5377 10.7992L58.5374 10.5538C58.5373 10.4913 58.5361 10.4317 58.5332 10.3743C59.6194 9.91231 60.2244 9.5461 60.2458 9.53277L60.5364 9.35247L60.8285 9.53313C60.9066 9.58145 68.7286 14.3184 79.4257 11.313L79.7887 11.2112L80.0248 11.5237C82.9766 15.4298 82.1518 18.6117 81.4896 21.1686C80.8849 23.5029 80.4759 25.0816 82.7438 26.6971C83.4549 26.1077 84.1178 25.586 84.5846 25.2363C84.8423 25.0435 85.0851 24.5833 85.0037 23.9167C84.9051 23.2835 85.9256 22.7944 86.0733 23.7198C86.0971 23.8354 86.5218 22.9344 85.7326 22.6291C85.1757 22.3973 84.8173 23.2973 84.7707 23.3359C84.2213 23.8156 83.5889 21.9484 85.0833 21.5563C85.872 21.3526 86.6373 21.9562 86.856 22.7164C86.8958 22.0345 86.4222 21.6862 86.9776 21.234C87.3562 20.9251 88.0003 21.3034 87.7468 22.5115C90.5782 19.1541 87.0008 15.966 85.3753 18.0439C84.5551 19.0928 86.4238 21.0149 86.7841 18.5745C86.8292 18.2687 87.4108 18.4186 87.6092 18.9066C88.1754 20.19 85.9175 21.8263 84.6721 19.955C83.6386 18.4648 84.9798 16.7682 86.3469 16.6443C88.0435 16.4901 89.5498 17.7711 89.5491 20.0674C89.5481 21.9529 88.1394 23.4329 86.4657 24.7829C88.9979 23.5416 90.7052 24.2463 91.3758 25.0122C92.1776 25.928 91.7694 26.9801 91.0817 26.4354C90.5244 25.9941 90.2481 25.4612 89.3613 25.2104C89.3211 25.1989 89.2941 25.1904 89.2683 25.1824C89.5901 25.313 90.84 25.9543 90.6244 27.5094C90.3739 29.6632 88.0927 30.104 87.5767 28.5441C87.2898 27.6608 87.8979 26.1334 88.2943 27.6316C88.657 28.8826 89.5336 28.2238 89.7223 27.3434C90.0837 25.6182 87.2717 25.031 85.6141 25.6971C85.2374 25.8424 84.8249 26.079 84.4346 26.3359C84.0819 26.6025 83.7377 26.8684 83.4112 27.1358L83.4483 27.1595L83.3702 27.589C82.2314 33.8713 79.6651 39.7489 75.9483 44.587C71.8795 49.8841 66.6043 53.6149 60.6925 55.3774L60.5371 55.4241L60.3815 55.3774C54.47 53.6149 49.1944 49.8841 45.1257 44.587C41.4088 39.7489 38.8426 33.8713 37.704 27.589L37.6274 27.1673C37.2896 26.8893 36.9322 26.613 36.5659 26.3359C36.1753 26.079 35.763 25.8424 35.386 25.6971C33.7284 25.031 30.9167 25.6182 31.2778 27.3434C31.4665 28.2238 32.3427 28.8826 32.7058 27.6316C33.1021 26.1334 33.7102 27.6608 33.423 28.5441C32.9074 30.104 30.6261 29.6632 30.3756 27.5094C30.1601 25.9543 31.41 25.313 31.7313 25.1824C31.7063 25.1904 31.679 25.1989 31.6389 25.2104C30.7519 25.4612 30.476 25.9941 29.9184 26.4354C29.2303 26.9801 28.8226 25.928 29.6244 25.0122C30.295 24.2463 32.0022 23.5416 34.5343 24.7829C32.8608 23.4329 31.4524 21.9529 31.4514 20.0674C31.4501 17.7711 32.9566 16.4901 34.6533 16.6443C36.0199 16.7682 37.3615 18.4648 36.328 19.955C35.0829 21.8263 32.8251 20.19 33.3908 18.9066C33.5889 18.4186 34.1709 18.2687 34.2164 18.5745C34.5764 21.0149 36.4446 19.0928 35.6243 18.0439C33.9993 15.966 30.4219 19.1541 33.2537 22.5115C32.9998 21.3034 33.644 20.9251 34.0224 21.234C34.5783 21.6862 34.1047 22.0345 34.144 22.7164C34.3622 21.9562 35.128 21.3526 35.9169 21.5563C37.4111 21.9484 36.7784 23.8156 36.229 23.3359C36.1828 23.2973 35.8248 22.3973 35.2674 22.6291C34.4782 22.9344 34.903 23.8354 34.9272 23.7198C35.0746 22.7944 36.0952 23.2835 35.9964 23.9167C35.9149 24.5833 36.1582 25.0435 36.4154 25.2363C36.8897 25.5915 37.5662 26.1242 38.2901 26.7252C40.6023 25.0998 40.1922 23.5164 39.5845 21.1686C38.9218 18.6117 38.0973 15.4298 41.0492 11.5237L41.2853 11.2112L41.6483 11.313C46.2095 12.5939 50.2474 12.4672 53.3858 11.8971C53.4929 12.3084 53.5951 12.7209 53.6965 13.1336C50.5059 13.725 46.4052 13.8682 41.724 12.6189C39.4193 15.8743 40.0721 18.3954 40.7044 20.8362C41.316 23.1978 41.9479 25.637 38.9226 27.7696ZM64.3539 45.5881C64.2137 45.4333 64.1873 45.3296 64.4232 45.0709C64.4682 45.0215 64.4427 45.0406 64.4968 44.9955C64.5526 44.9489 64.4886 44.9775 64.5716 44.9524C64.5776 45.1018 64.508 45.2946 64.4447 45.4295L64.3539 45.5881ZM50.942 20.6753C50.7952 21.2756 50.8311 21.1277 50.7394 21.7462C50.6669 22.2345 50.603 22.2871 50.4118 22.6513C50.4325 22.6856 50.4175 22.7029 50.5276 22.761C50.7252 22.5513 51.0411 21.7467 51.1581 21.4216C51.1533 21.4161 51.1455 21.4005 51.1433 21.4057C51.1412 21.4108 50.9442 21.211 50.9577 21.1061C50.9759 20.9633 51.0215 20.7581 51.1035 20.6836C51.1381 20.5673 51.1546 20.5874 51.1684 20.535C51.2208 20.3361 51.1883 20.4849 51.1589 20.4232C50.9859 20.468 51.0493 20.5811 50.942 20.6753ZM50.6998 24.1532C50.5681 24.185 50.0071 24.7784 50.405 25.0296C50.7641 25.2563 50.5623 24.7045 50.5623 24.7041C50.539 24.4329 50.8279 24.4594 50.6998 24.1532ZM53.0442 8.76025C52.9825 8.74415 53.0098 8.7507 52.9691 8.72165C52.9472 8.70604 52.9137 8.67201 52.8908 8.65289C52.657 8.45856 52.6757 8.54236 52.641 7.98784C52.6217 7.67992 52.5172 7.17637 52.5432 6.88739C52.6892 7.22247 53.0707 8.15218 53.0845 8.49284L53.0442 8.76025ZM53.5239 8.54401C53.5776 8.3587 53.6292 8.42651 53.5389 8.23948L52.6527 6.32516C52.6033 6.2197 52.5593 6.10802 52.5077 6.00555C52.4074 6.00423 52.3332 6.04222 52.2337 6.09062C52.3192 6.75111 52.4797 7.60519 52.5541 8.23313C52.6196 8.78568 52.6987 8.53363 52.9219 8.86684C53.0244 9.02001 52.8363 9.0486 52.9381 9.26831C53.1523 9.17327 52.899 9.02129 53.2228 8.94708C53.2978 8.95112 53.3263 8.96489 53.3794 8.99417L53.3771 9.12263C53.3107 9.2986 53.2458 9.16564 53.1096 9.33938C53.0341 9.43562 53.0766 9.35487 53.0387 9.46248C53.2357 9.62982 53.2362 9.76685 53.3279 10.1798C53.3901 10.4598 53.4667 10.7504 53.5374 11.0024C53.8853 12.2422 54.2291 13.7791 54.5837 15.0988L54.7591 15.8088C54.7684 15.8285 54.7684 15.8296 54.782 15.8498C54.8269 15.9166 54.7553 15.8532 54.832 15.9051C54.8983 15.8705 54.863 15.9032 54.9076 15.8427C55.0061 15.7088 54.8663 15.4537 54.7998 15.1564C54.6519 14.4953 54.3549 13.4492 54.1722 12.7506C54.1203 12.5526 53.3442 9.65545 53.3407 9.52399L53.481 9.4584C53.5685 9.62525 53.647 10.0673 53.7045 10.2706C53.778 10.53 53.8593 10.8292 53.9239 11.11C54.0511 11.6622 54.2242 12.2162 54.3509 12.769C54.4163 13.0543 54.4826 13.315 54.5599 13.5977L54.9893 15.2603C55.0675 15.5416 55.1087 15.8683 55.273 16.0283C55.2566 16.0657 55.1892 16.0674 55.2556 16.2953L56.4104 20.8241C56.213 20.7323 56.063 19.9812 55.9914 19.6892L55.3276 17.1726C55.2838 17.0114 55.1419 16.3439 55.0636 16.2522C55.028 16.2104 55.0085 16.1963 54.9692 16.1453C54.9566 16.1289 54.9429 16.1074 54.9285 16.0928C54.8554 16.0185 54.9363 16.079 54.8429 16.0255C54.8557 16.3561 55.271 17.7181 55.3757 18.2177C55.5073 18.8458 55.835 19.8913 55.927 20.4255C55.6261 20.3213 55.4929 19.8284 55.3516 19.5429C55.2671 19.3724 55.1686 19.2338 55.0478 19.1284C54.8631 18.9672 54.732 18.9176 54.6367 18.8391C54.6421 18.6606 54.76 18.3197 54.7996 18.126C54.8699 17.7829 54.8905 17.7495 54.6599 17.528C54.1761 17.7276 53.4588 18.562 53.3375 18.622C53.3992 18.3201 53.7141 18.2764 53.7888 18.0111C53.6222 18.0317 53.5056 18.0552 53.3697 18.1303C53.1841 18.233 53.1683 18.3053 53.0816 18.3392C52.91 18.0144 53.4767 18.024 53.4585 17.5783C53.3528 17.6042 53.2794 17.6728 53.1626 17.7313C52.7119 17.9571 52.6769 17.9359 52.4011 18.3864C52.3953 18.3774 52.3288 18.3863 52.397 18.1995C52.4226 18.1296 52.4454 18.0914 52.4392 17.9876C51.977 17.934 51.966 18.413 51.7659 18.6093C51.6624 18.0031 51.6885 18.1238 51.3045 17.669C51.1911 17.5349 51.1969 17.4511 51.0442 17.5172C51.0047 17.5551 50.7984 18.4979 50.9266 18.9956C50.9486 19.0814 50.9626 19.1131 50.996 19.1993C51.0229 19.2689 51.0541 19.3396 51.0308 19.4C50.9246 19.5767 50.8806 19.5143 50.8939 19.7921C50.6964 19.9182 50.823 19.8226 50.6282 20.2421C50.5773 20.3518 50.418 20.5971 50.3412 20.6614C50.2144 21.6469 50.2945 21.195 49.9636 22.234L49.7384 22.9745C49.6516 23.0709 49.6718 22.962 49.5258 23.2435C49.4033 23.4798 49.5714 23.3827 49.454 23.6222C49.1257 24.2915 48.8612 24.0844 49.0949 25.0101C49.1589 25.2638 49.2092 25.5355 49.3228 25.7532C49.4837 26.0613 49.6782 26.0072 50.0398 26.0063C50.1051 26.034 50.0737 26.2085 50.585 26.2548C51.2451 26.3144 51.7769 25.9854 51.9591 25.2637L51.9911 25.1666C52.0084 25.1908 52.2178 25.6078 52.2217 25.6363C52.2369 25.7488 52.171 26.1894 52.1528 26.2982C52.087 26.69 52.075 27.2202 52.0404 27.6319L52.0763 27.73L52.162 27.6486C52.1659 27.6451 52.1732 27.6378 52.1798 27.6339C52.2593 27.3505 52.3862 26.1778 52.3634 25.8132C52.6128 25.9635 52.6778 26.3741 53.391 26.2667C53.3746 26.5744 53.3257 26.6511 53.2529 26.8939L53.308 26.9285C53.4016 26.9987 53.4002 27.0262 53.4354 27.1623C53.4635 27.2712 53.4728 27.4516 53.4752 27.6009C53.4807 27.9402 53.4253 28.1946 53.4201 28.483C53.5152 28.4488 53.4385 28.5015 53.5536 28.3511C53.5801 28.3166 53.5742 28.3223 53.6009 28.2962L53.4793 29.6785C53.6235 29.6799 53.6644 29.5426 53.7324 29.4344C53.7884 29.3455 53.8546 29.2171 53.9114 29.1055C54.5919 27.7698 54.4628 27.1013 54.6084 26.6874C54.8507 26.7763 55.0124 26.6506 55.1976 26.6585C55.4904 27.3135 55.4064 28.5557 55.4052 29.2681C55.9479 29.1054 56.1283 27.545 55.9443 26.9028C55.9209 26.8212 55.8571 26.6273 55.8531 26.5741C56.1629 26.6613 56.3788 26.7625 56.7395 26.571C56.8743 26.4995 56.8875 26.4546 56.9843 26.433C57.1092 26.6247 57.2136 26.8794 57.2834 27.1242C57.3433 27.3339 57.4562 27.7832 57.4438 28.0006C57.0235 28.3063 56.1828 28.969 55.7926 29.3663C55.5711 29.5918 55.2616 29.9165 55.0784 30.1715C55.0227 30.2492 55.0029 30.2989 54.9182 30.3525C54.7913 30.1581 54.7341 29.9116 54.7029 29.6684C54.6666 29.3846 54.6536 29.1723 54.6478 28.8571C54.5602 28.8685 54.5407 28.8123 54.4576 29.0447C54.3623 29.3112 54.243 29.5898 54.2078 29.9065C54.1779 30.1753 54.186 30.3789 54.2517 30.6148C54.2846 30.7329 54.2952 30.7704 54.3549 30.8771C54.419 30.9916 54.4712 31.0032 54.4614 31.1689C53.6872 31.1324 52.7984 30.3543 52.4493 29.5386C52.3511 29.309 52.1871 28.8169 52.2069 28.5082C52.1632 28.4464 52.1789 28.4088 52.1747 28.3081L52.1148 28.2655C51.9673 28.1564 52.0486 28.1688 51.9235 28.1133C51.9291 28.3402 51.9778 28.196 52.0124 28.361C51.8513 28.3635 51.866 28.1556 51.76 28.3886C51.8682 28.4144 51.9023 28.4274 51.9649 28.4855C51.9782 28.6432 51.9827 28.6528 51.8712 28.7198C51.9323 29.4294 52.0781 29.9573 52.4104 30.4719C52.5422 30.6758 52.7287 30.9384 52.8493 31.1676C52.9026 31.269 53.0076 31.4602 52.9807 31.582C52.9555 31.6963 52.8476 31.866 52.7372 31.9127C52.571 31.8998 52.3029 31.6191 52.2104 31.5163C51.8999 31.1712 51.6625 30.7579 51.5241 30.2835L51.3417 29.523C51.3395 29.5171 51.3358 29.5066 51.3311 29.4995C51.1125 29.6992 51.4547 30.8433 51.537 31.0704C51.633 31.3348 51.8422 31.7406 52.0027 31.9849C52.0458 32.0504 52.1538 32.1906 52.1933 32.2751C51.7265 32.2904 51.5604 31.4282 51.424 31.0826C51.4107 31.2752 51.4519 31.4434 51.5092 31.6171C51.5902 31.8623 51.6739 31.9591 51.7142 32.0829C51.4865 31.9809 51.2046 31.6266 51.1098 31.3745L51.0097 31.0786C51.0058 31.0708 50.9993 31.0607 50.9959 31.0543C50.9925 31.0479 50.9869 31.0375 50.9813 31.0299C50.8663 31.3113 50.925 31.476 50.9206 31.7782C50.5717 31.3423 50.52 30.6218 50.7399 30.0437C50.9604 29.4639 51.3152 29.1211 51.6624 28.7406C51.6312 28.6257 51.6693 28.6305 51.5953 28.6005C51.4962 28.7322 51.6655 28.6765 51.4609 28.846C51.3861 28.9081 51.3886 28.8754 51.3178 28.9421C51.2586 28.9976 51.2728 29.0172 51.2204 29.0788L51.0013 29.3387C50.9232 29.4319 50.8443 29.5676 50.7759 29.6128C50.7575 29.74 50.1002 30.5135 50.6604 31.6368C50.8042 31.9251 50.9248 31.9138 50.8076 32.3036C50.6767 32.7384 50.4956 33.0566 50.1853 33.3524C49.9981 33.5308 49.6721 33.7236 49.4203 33.8214C49.2606 33.8835 49.2676 33.889 49.2001 34.0493C48.915 34.7269 48.9031 35.0117 49.1466 35.7239C49.18 35.8216 49.2653 35.9532 49.2842 36.0069C49.3806 36.2803 49.0079 37.5175 49.2406 38.4551C49.2761 38.5984 49.2702 38.6915 49.2734 38.853C49.2848 39.4269 49.0571 39.3182 49.4814 39.8061C49.4403 39.9424 49.3799 39.9077 49.4978 40.0788C49.6841 40.3494 49.9184 40.496 50.0542 40.7129C50.1895 40.9287 50.1761 41.0859 50.222 41.3281C50.3524 42.0165 50.4802 41.982 50.9086 42.2272C51.0715 42.3205 51.1928 42.4878 51.3501 42.58C52.0245 42.9754 52.9086 42.125 52.3395 40.9383C52.153 40.5494 51.9162 40.295 51.6125 40.09C51.5327 40.036 51.4337 39.9709 51.3327 39.9792C51.1739 39.9923 50.9767 40.2881 50.8432 40.0198C50.7952 39.9235 50.8585 39.8033 50.8882 39.6934C50.9474 39.4742 50.9657 39.1741 50.9225 38.9209C50.9038 38.8111 50.8684 38.7253 50.8238 38.6273C50.7739 38.5175 50.7094 38.4479 50.6751 38.3681C50.9708 38.0981 50.3376 36.1844 50.872 35.2353C51.1347 35.2222 50.9658 35.3816 51.2399 35.2198C51.5078 35.0616 51.8876 35.0855 52.1659 34.984C52.309 34.9317 52.4464 34.7889 52.5199 34.7792C52.5365 35.0712 52.5261 35.5107 52.3642 35.6727C52.124 35.6099 52.0875 35.5197 51.905 35.3986C51.8221 35.4232 51.7341 35.4894 51.6721 35.5602C51.4825 35.777 51.7181 36.1932 51.8573 36.3812L52.0534 36.5738C52.1168 36.6448 52.0693 36.6043 52.1364 36.6652C52.2831 36.7986 52.2638 36.884 52.4196 37.1992C52.4397 37.24 52.4669 37.2841 52.499 37.3243C52.9296 37.8633 52.8004 37.82 52.9173 38.4784C52.9996 38.9419 53.1504 39.3203 53.5122 39.4702C53.7977 39.5884 53.763 39.5054 54.0084 39.737C54.1296 39.8514 54.2743 40.0057 54.4061 40.1115C54.7893 40.4189 55.1612 40.2789 55.3889 39.8489C55.6068 39.4374 55.5735 38.9971 55.404 38.5484C55.2468 38.1324 55.0216 37.8636 54.4877 37.8994C54.3813 37.7855 54.2445 37.6017 54.1301 37.5059C54.6953 37.3117 54.4174 36.9288 54.832 36.4447C55.0348 36.6921 55.4037 37.0177 55.6458 37.2138C55.9093 37.427 56.2513 37.7086 56.5654 37.8692C56.5535 37.9494 56.4946 38.1408 56.4686 38.2438C56.1194 39.6272 57.0977 41.2838 57.8161 42.3275L58.5092 43.2452C58.5682 43.315 58.6277 43.3677 58.6662 43.4599C58.4473 43.6599 58.3274 43.7546 58.1614 44.0808C57.7746 44.8405 57.5093 45.6611 56.9969 46.3386L56.4845 46.9582C56.3529 47.1427 56.4465 47.5235 56.1469 47.7632C55.7798 48.057 55.988 47.9882 55.7458 48.5019L55.4247 49.0178C55.3943 49.0588 55.3866 49.0642 55.3606 49.1047C55.3041 49.1926 55.3489 49.0807 55.3036 49.2135C55.4314 49.595 55.78 49.6292 56.1797 49.6438C56.5714 49.6582 56.959 49.5919 57.2675 49.4596C57.8795 49.197 57.9723 48.9428 58.0539 48.2668C58.0839 48.0185 57.9919 47.9687 57.7813 47.9337L57.8303 47.5938C58.3435 47.4563 58.2619 47.1982 58.3024 46.6233C58.4269 46.5426 58.5193 46.4422 58.6202 46.3529C58.6911 46.2903 58.7067 46.2686 58.7682 46.2054C58.8275 46.1445 58.8766 46.0995 58.9342 46.0441L59.3937 45.5842C59.8302 45.1219 60.328 44.6002 60.6664 44.0578C60.808 43.8309 61.0779 43.5005 60.8901 43.217C60.8043 43.0874 60.6642 42.9903 60.575 42.9048C59.9143 42.2721 59.9444 41.3875 60.0774 40.4409C60.5199 40.3734 60.6817 40.4994 61.0487 40.0419C61.2952 39.7345 61.352 39.4316 61.5182 39.0936C61.6899 39.141 61.8703 39.6147 62.3504 39.9588C63.3516 40.6764 62.7691 41.0775 63.0337 42.1437C63.1068 42.4381 63.2424 42.6851 63.3901 42.9351C63.717 43.4886 63.5783 43.2786 63.4239 43.753C63.2743 44.2123 63.3168 44.9682 63.205 45.2735C63.1559 45.4076 63.0765 45.5705 63.021 45.6905C62.708 46.3679 62.3017 46.7532 62.139 47.1119C62.0127 47.3907 62.011 47.7116 61.8999 48.0252C61.7968 48.3163 61.6745 48.5983 61.5107 48.8053C61.4205 48.9195 61.2803 49.0038 61.2587 49.1224C61.2427 49.2098 61.2293 49.5767 61.2534 49.6556C61.4856 50.4154 63.6376 49.5854 63.7427 49.386C63.7779 49.177 63.8177 48.9388 63.8025 48.7244C63.7794 48.3977 63.77 48.361 63.5123 48.2807C63.4777 47.9172 63.6573 47.804 63.9182 47.6647C63.9272 46.2709 63.8596 47.1993 64.7819 45.5446C65.002 45.1498 65.4604 44.3643 65.3557 43.8683C65.3419 43.8028 65.2984 43.6788 65.262 43.6025C65.2354 43.5469 65.1364 43.4091 65.1153 43.3582C64.9671 42.9999 65.3392 41.828 65.3017 41.2856C65.2614 40.7001 65.1118 40.9498 65.3195 40.4012C65.5366 39.8277 65.6618 39.2041 65.7811 38.5964C65.817 38.4134 65.7951 38.3635 65.8514 38.258C65.9544 38.4648 65.9705 38.7467 65.9906 38.9755C66.0581 39.7442 66.0579 39.6472 66.3813 40.2815C66.5247 40.5627 66.4751 40.6871 66.4859 41.0381C66.8893 41.0295 66.7144 40.6709 66.7983 40.506C67.1047 41.0167 66.9682 42.6998 67.86 42.9673C68.0038 42.8331 67.8766 42.8109 67.8008 42.6686C67.7104 42.4992 67.6996 42.3747 67.7866 42.211C67.893 42.405 68.0652 43.0109 68.2705 43.4251C68.401 43.6883 68.7588 44.3011 69.0087 44.3957C68.9193 43.8177 68.746 43.5218 68.7702 43.0288C69.222 43.3229 69.1663 44.516 69.5224 44.8773C69.568 44.4425 69.2782 43.4427 69.2928 43.0914C69.3722 43.2661 69.3708 43.5593 69.5847 43.6134L69.2104 41.5806C69.1961 41.5321 69.1736 41.4846 69.1658 41.4458C69.1454 41.3432 69.1545 41.3564 69.1801 41.3165C69.3269 41.3661 69.2703 41.467 69.3336 41.5734C69.3994 41.6839 69.3014 41.6093 69.366 41.6029C69.4244 41.5524 69.3771 41.6356 69.4172 41.5021C69.6235 40.8167 69.1754 40.0925 68.8988 39.6209C68.8192 39.4941 68.3288 38.8858 68.5299 38.8098C68.5366 38.8073 68.5464 38.8013 68.5547 38.7986C68.6563 38.7665 68.4969 38.799 68.6055 38.7845C68.6909 38.7732 68.7435 38.813 68.8569 38.8458C68.8348 38.7285 68.7999 38.6483 68.756 38.5467C68.7128 38.4464 68.6621 38.4003 68.5825 38.3402C68.3128 38.0942 68.0274 37.2247 67.6839 36.706L67.6605 36.6709C67.6537 36.6606 67.6364 36.6342 67.6252 36.6171C67.0697 35.7698 66.2519 35.4334 66.2396 35.2505C66.2374 35.2194 66.2383 35.2095 66.2414 35.1786L66.4564 33.1115C66.4971 32.6902 66.5085 32.7346 66.3243 32.4674L66.307 32.9796C66.2707 33.764 66.1039 35.9604 65.8514 36.5894C65.7799 36.5683 65.6364 36.1657 65.5712 36.0198C63.8924 32.0773 65.5479 36.1002 63.5822 31.2321C63.0091 29.7536 61.9158 26.8862 61.6713 25.2288C61.586 24.6513 61.4825 23.9947 61.6895 23.449C61.7706 23.2354 61.9322 22.9921 62.0726 22.846C62.2411 22.6706 62.4212 22.5343 62.6905 22.5077C62.7235 22.6746 62.7823 22.7969 62.9111 22.8803C62.9352 22.896 62.9425 22.8979 62.9672 22.9122L63.0436 22.9587C62.9189 23.0589 62.7871 23.0041 62.5187 23.2946C62.4116 23.4103 62.2382 23.642 62.1933 23.8364C62.0829 24.3151 62.1031 24.9475 62.2245 25.43C62.4655 26.388 62.6724 27.3118 62.989 28.2074C63.2961 29.076 63.5881 29.9268 63.9254 30.7699C64.0881 31.1763 64.2648 31.6006 64.4262 32.0164C65.0176 33.5395 65.3097 33.7764 65.8415 35.5399C65.891 35.4959 65.8681 35.5298 65.8991 35.4575L65.9734 35.079C66.1171 34.0145 66.1152 33.1526 66.2036 32.1194C66.2167 31.9663 66.2176 31.8206 66.2183 31.6591L66.235 30.9191C66.2352 30.7944 66.2106 30.7603 66.2818 30.6972C66.3676 30.754 66.3343 30.7396 66.3324 31.0132C66.3296 31.3993 66.3103 31.803 66.3337 32.1863L66.4769 32.1504L66.4677 30.7222C66.6577 30.8967 66.7186 31.732 67.1822 31.9152C67.1664 31.8075 67.1544 31.8143 67.135 31.7252C67.1043 31.5843 67.0962 31.63 67.1714 31.5828L67.2732 31.9134C67.3 32.1389 67.1497 32.0123 67.0357 31.9407C67.1158 32.3652 67.1274 32.4002 67.4878 32.6081C67.592 32.6683 67.7442 32.7451 67.8582 32.7949C67.9799 32.8482 68.1949 32.9004 68.286 32.9503C68.331 33.3601 68.2044 33.5559 68.0827 33.8649C67.9642 34.1655 68.051 34.5423 68.2363 34.7294C68.3955 34.8903 68.6454 35.0367 68.8313 35.2298C68.9116 35.3133 69.0042 35.4683 69.0875 35.5119C69.201 35.5713 69.4027 35.5029 69.5689 35.5198C69.6896 35.8355 69.6071 36.8894 69.5769 37.273C70.0953 37.1394 70.6041 36.3738 70.9584 35.9612L71.2586 35.608C71.4192 35.4507 71.59 35.3991 71.7402 35.2617C71.9265 35.0911 72.0394 33.2423 72.0244 32.9802C71.9715 32.061 71.7112 33.0121 71.9587 31.5555C72.1429 30.4713 71.9264 29.0202 71.0976 28.2513L70.62 27.8777C70.5287 27.6812 70.6719 26.2943 69.6584 25.4601C69.5527 25.373 69.4939 25.3279 69.3678 25.2462C69.171 25.1189 68.9188 25.0747 68.7978 24.8747C68.6684 24.6608 68.5504 24.5296 68.326 24.3651C67.9278 24.0732 67.4599 23.9149 66.9861 23.8085C66.1553 23.622 66.3159 23.8948 65.6972 23.2152C65.3073 22.7869 65.1153 22.6674 64.5372 22.4562C64.3718 22.3957 63.9493 22.3013 63.8338 22.231C63.7411 22.1745 63.6638 22.0959 63.5581 22.0327C63.3445 21.9052 63.0761 21.8388 62.8355 21.7985C62.5789 21.7553 62.6946 21.7697 62.524 21.6318C62.326 21.4719 62.0741 21.4331 61.7869 21.4111C61.724 21.3791 61.5488 21.0253 61.5111 20.9686C61.3039 20.6576 61.4969 20.789 61.5109 20.4381C61.5382 19.7533 61.5232 18.9695 61.0646 18.4954L60.7852 18.2123C60.2819 17.7392 60.3601 17.5475 60.2657 17.2521C60.2635 17.2452 60.26 17.2342 60.2556 17.2262L60.0622 17.2731C60.0537 17.2976 60.0444 17.3256 60.0391 17.3477C60.0266 17.3992 60.0224 17.4497 60.0089 17.5034C59.9947 17.5601 59.95 17.6964 59.9244 17.7475C59.7137 18.168 59.2682 18.4368 59.0349 18.8539C58.604 19.6243 59.0124 20.0706 58.9541 20.4832C58.9226 20.7054 59.0196 20.8589 59.0185 21.0834C58.7695 21.327 58.7473 21.252 58.6261 21.6449C58.159 21.7629 58.3757 21.8518 58.1647 22.0423C57.9623 22.2251 57.8595 22.1237 57.7459 22.4808C57.5993 22.9416 57.5681 23.519 57.5047 24.0097C57.3969 23.9969 57.4757 24.0482 57.3839 23.9455C57.2863 23.8364 57.243 23.6823 57.1876 23.5428C57.193 23.5375 57.2045 23.5264 57.2078 23.5329C57.2112 23.5394 57.2236 23.5252 57.2283 23.5232L57.2925 23.4971C57.299 23.4941 57.3077 23.4902 57.3136 23.4874L57.3549 23.4654C57.1597 23.132 57.1593 22.5075 57.0389 22.1323C56.9903 21.9811 56.9205 21.875 56.8688 21.729C56.9402 21.6042 57.0154 21.5525 56.9053 21.3841C56.7771 21.1877 56.8176 21.344 56.7346 21.0432C56.6584 20.7671 56.5976 20.5046 56.5331 20.2477C56.3988 19.7121 56.284 19.1637 56.1296 18.6164C56.0001 18.1579 55.5396 16.0472 55.412 15.8208C55.3532 15.7165 55.2537 15.6437 55.2147 15.5284C55.3439 15.5333 55.2488 15.5572 55.3753 15.6196C55.3601 15.4545 55.3586 15.5381 55.3127 15.4046C55.2698 15.28 55.2965 15.2867 55.2723 15.1663C55.1496 14.557 54.5028 12.4071 54.5284 12.1209C54.9502 11.909 56.7674 11.2231 57.2023 11.0847C57.4523 11.0051 57.5758 11.0196 57.7194 11.2264C57.8979 11.4833 57.8995 11.7462 58.1395 11.9438C58.2109 12.0027 58.2881 12.057 58.3972 12.0801L58.0116 11.1602C57.8824 10.9436 57.6293 10.7747 57.4858 10.5539C57.4388 10.4816 57.4485 10.5261 57.4479 10.4326C57.7296 10.587 57.733 10.568 57.9376 10.8394C57.993 10.9129 58.0786 11.018 58.1373 11.0857C58.2212 11.1824 58.284 11.2726 58.4237 11.2999L58.2414 11.0366C58.0398 10.7746 57.9762 10.4225 57.7934 10.1636C57.7131 10.0499 57.5939 9.9592 57.5125 9.82198C57.895 10.0077 57.9266 10.3323 58.1582 10.5542C58.1577 10.2055 58.1228 10.0179 57.942 9.78905C57.9031 9.73983 57.878 9.71782 57.8212 9.67213C57.268 9.22728 57.3307 9.46013 57.069 8.728C56.9652 8.43792 56.8836 8.26535 56.5439 8.31363C55.4246 8.47277 53.9438 9.23144 53.6989 9.24313C53.8017 9.01231 53.6986 8.82906 53.4991 8.74633C53.4634 8.61379 53.4725 8.66547 53.5239 8.54401ZM50.2539 38.745C50.2794 38.8588 50.3583 38.8637 50.409 38.9901C50.5319 39.096 50.6189 39.7223 50.2109 39.8697L50.0606 39.929C50.0917 40.075 50.1653 40.1989 50.2618 40.2769C50.5355 40.4979 50.3371 40.3321 50.5053 40.5983C50.6957 40.9 51.0243 40.5863 51.3838 40.6737C51.5577 40.7159 52 41.331 51.5223 41.7649C51.4216 41.8564 51.2301 41.8936 51.2609 42.0195C51.2686 42.0243 51.2805 42.02 51.2852 42.0308C51.2962 42.0552 51.4173 42.0644 51.5094 42.0277C51.5583 42.0084 51.6495 41.9486 51.7073 41.9021C51.7686 41.8527 51.9027 41.7137 51.9754 41.6939C52.3283 41.5974 52.1132 42.2532 51.6468 42.4188C51.36 42.2223 51.5204 42.2734 51.0864 42.0676C50.8724 41.9662 50.6043 41.8418 50.4926 41.6568L50.4034 41.3791C50.3127 40.9244 50.2823 40.7533 50.0052 40.3654C49.8411 40.1356 49.2929 39.5333 49.3924 39.1496C49.5656 38.482 49.3162 38.1708 49.3943 37.3854C49.6121 35.1957 49.2064 35.6003 49.1707 34.9162C49.1581 34.6744 49.3103 34.3479 49.4104 34.1791C49.6059 33.8498 49.9711 33.8088 50.4191 33.3589C50.8213 32.9549 50.8841 32.6984 51.0745 32.1207C51.1857 32.2086 51.3146 32.2613 51.4394 32.3354C51.4323 32.495 51.1138 33.4797 50.7834 33.7469C50.3383 34.107 49.7593 33.8277 49.5233 34.549C49.5076 34.5969 49.8881 38.6692 50.2539 38.745ZM54.0345 39.5293C54.0166 39.3382 54.0287 39.4953 54.2504 39.213C54.3026 39.1465 54.4281 38.9678 54.5298 38.9318C54.8056 38.8339 55.0596 39.1873 55.0958 39.4246C55.1329 39.667 54.7963 40.0502 54.6544 39.9911C54.5738 39.9576 54.4376 39.7043 54.241 39.606C54.1498 39.5605 54.1031 39.581 54.0345 39.5293ZM56.8121 38.2494C56.8833 38.516 56.9159 38.8336 56.985 39.0984C57.0584 39.3799 57.1019 39.6662 57.2292 39.9114C57.5228 40.4766 57.808 40.4318 57.8224 40.8504C57.8293 41.0506 57.8518 41.1377 57.8933 41.3233C58.012 41.8536 58.3381 42.3289 58.6237 42.6631C59.0342 43.1435 59.1714 42.8753 59.5414 43.2466C59.6758 43.3814 59.7081 43.3719 59.8594 43.4644C59.7854 43.8513 59.1631 44.5806 58.7595 44.8446C58.4661 45.0364 58.6975 45.1047 58.4649 45.7901C58.2099 46.5418 57.9516 46.3346 57.878 46.4466C57.7902 46.8572 58.0262 46.9612 57.7427 47.2603C57.5481 47.4654 57.3947 47.5298 57.0281 47.541C57.0247 47.5713 57.0474 47.9079 57.0525 47.9837C57.2203 48.1886 57.3785 48.1224 57.474 48.2297C57.4371 48.3552 57.2772 48.3985 57.1283 48.398C56.9688 48.3975 56.8126 48.332 56.6491 48.2971C56.6974 48.5229 56.8508 48.6022 56.7688 48.8972C56.602 49.0492 56.0998 49.1201 55.8169 49.0842C55.748 48.7003 56.1043 48.2475 56.2707 48.0179C56.4541 47.7649 56.4958 47.8391 56.5342 47.4925C56.5656 47.2079 56.905 46.8094 57.1104 46.5524L57.7406 45.6263C57.803 45.5209 57.9639 45.2573 58.0045 45.1038C58.0956 45.1361 58.0253 45.1325 58.1265 45.1598C58.1459 44.5666 58.3008 44.0463 58.7126 43.6893C58.8523 43.5683 58.9567 43.6504 58.9342 43.4354C58.9229 43.3281 58.7325 43.1639 58.6631 43.0799L58.283 42.5357C58.0614 42.1797 57.9237 41.8544 57.7612 41.4647C57.6298 41.1495 57.7198 41.2093 57.4791 40.9363L57.0341 40.307C56.8838 40.0333 56.7317 39.7463 56.6754 39.3975C56.6371 39.1597 56.6237 38.325 56.8121 38.2494ZM61.8706 38.9988C62.0827 39.4354 62.6076 39.4555 62.8972 39.9197C63.0204 39.8901 63.3781 39.8531 63.4531 39.9491C63.6644 40.2198 63.1793 40.1056 63.0797 40.1253C63.0948 40.2905 63.3361 40.4628 63.4148 40.6669C63.5956 41.1351 63.2922 41.65 63.8262 42.1316C64.1369 42.4117 63.9772 42.4202 64.1476 42.7413C64.1699 42.7287 64.2835 42.6859 64.2648 42.5471C64.2531 42.4607 64.1974 42.4466 64.1495 42.3577C64.1487 42.0926 64.2 41.9144 64.1405 41.6374C64.1082 41.4871 64.0214 41.1278 64.1586 41.043C64.2171 41.0059 64.1717 41.0132 64.2564 41.1745C64.3589 41.3696 64.5275 41.5561 64.5937 41.7367C64.7167 42.0723 64.6371 42.4254 64.5524 42.7847C64.5162 42.9381 64.6092 43.0629 64.5808 43.3114C64.5659 43.4419 64.5068 43.6782 64.4692 43.798C64.3724 44.1066 64.265 44.4503 64.2 44.7665C64.1631 44.9465 64.1657 45.1331 64.1269 45.3015C64.062 45.5824 63.7096 45.7235 63.3826 46.3847C63.0646 47.0278 63.3376 47.1922 63.3376 47.3991C63.3375 47.6727 62.9108 47.9039 62.696 47.9893C62.6809 48.187 62.7881 48.2883 62.7057 48.5499C62.6516 48.7214 62.4844 48.8092 62.4851 48.9155L62.7353 48.9577C62.7226 49.1308 62.6701 49.119 62.5308 49.1631C62.4164 49.1994 62.3595 49.2249 62.2356 49.2422C61.9773 49.2783 61.7918 49.2788 61.5325 49.2365C61.7467 48.9978 61.7892 49.0032 61.9497 48.6931C62.0821 48.4375 62.1 48.1199 62.2021 47.9166C62.4695 47.3843 62.3456 47.4978 62.4729 47.1617C62.491 47.1139 62.7549 46.7767 62.8761 46.5481C63.1193 46.0891 63.2586 45.5903 63.4789 45.1017C63.6759 44.6649 63.5674 43.7094 63.8854 43.4548C63.7588 43.3378 63.1822 42.1763 63.1497 41.6827C63.1141 41.143 63.2483 41.1121 63.234 40.9194C63.2209 40.7451 63.0618 40.4612 62.9725 40.3397C62.4483 39.6262 63.0024 40.0783 62.4045 39.6567C62.2898 39.5758 61.8529 39.2529 61.8468 39.0918C61.8414 38.9481 61.8387 39.0498 61.8706 38.9988ZM63.8252 37.5003C63.8101 37.5154 63.8064 37.5223 63.774 37.5489L63.3361 37.7821C62.6153 38.0288 62.764 37.3135 63.3026 37.2736C63.4785 37.2605 63.7498 37.3821 63.8252 37.5003ZM63.4705 35.7787C63.5267 35.6963 63.5576 35.679 63.6556 35.6459C63.7797 35.8386 64.1492 36.1718 64.31 36.3224C64.631 36.6228 64.2453 37.0182 64.1081 37.2046L63.3392 37.0179C63.5658 36.8361 63.8824 36.9437 63.815 36.4551C63.7714 36.1402 63.577 36.0146 63.4705 35.7787ZM50.3306 36.1097C50.4066 36.0724 50.3829 36.0435 50.4732 36.0204C50.4587 36.2161 50.4408 36.2296 50.3703 36.3771C50.2488 36.2509 50.3236 36.2104 50.1324 36.0171C50.0622 35.9461 50.067 35.9713 50.0297 35.8543C50.0064 35.7808 49.9931 35.6873 49.9848 35.5957C49.9682 35.4153 49.9721 35.1926 49.9956 35.013C50.0222 34.8096 50.0947 34.7363 50.3071 34.7663C50.5821 35.3451 50.2258 35.6637 50.3306 36.1097ZM54.2073 34.5818C54.2765 34.6187 54.5841 35.1115 54.6697 35.2442C54.683 35.2648 54.6929 35.2793 54.7063 35.2982C54.7098 35.3032 54.7152 35.3102 54.7188 35.3152C55.0884 35.8237 55.6112 36.5011 56.0905 36.8601C56.1743 36.9229 56.2276 36.9624 56.3098 37.0246C56.454 37.1337 56.5856 37.2165 56.7573 37.3144C56.8977 37.3944 57.1416 37.4823 57.2633 37.5619C56.7455 37.7865 55.7183 36.8054 55.3906 36.5042L54.2344 35.342C54.1595 35.24 54.185 35.2489 54.1919 34.9794C54.1953 34.8459 54.2028 34.715 54.2073 34.5818ZM57.0333 35.2234C57.9123 35.3349 57.7074 35.1766 58.1151 35.173C58.1084 35.2515 58.0741 35.2923 58.0327 35.3355C57.9416 35.4302 57.9319 35.3861 57.9156 35.4712C58.1137 35.6067 58.304 35.5343 58.5085 35.4641C58.4244 35.65 58.1556 35.789 57.9273 35.8148C57.7705 35.8325 57.6889 35.792 57.5388 35.7653C57.315 35.7255 57.0093 35.8469 56.8182 35.6806C56.6166 35.5055 56.2776 35.5836 56.012 35.1892C56.5449 35.1774 56.7195 35.2 57.1297 34.9564C57.1407 35.1252 57.088 35.1074 57.0333 35.2234ZM52.6798 34.1105C52.4048 34.1346 52.1723 34.0621 51.9145 34.1649C51.7049 34.2485 51.704 34.3813 51.3299 34.18C51.3432 34.1437 52.0346 33.2487 52.3935 33.2808C52.5298 33.2929 52.5459 33.3692 52.6251 33.4692C52.7088 33.5749 52.7333 33.574 52.742 33.7477C52.7484 33.8759 52.737 34.0172 52.6798 34.1105ZM54.3347 33.7804L54.3353 33.5534C54.4614 33.6214 54.4338 33.6337 54.531 33.7341L54.5605 33.7627C54.5666 33.7686 54.5847 33.7846 54.591 33.7904L55.1177 34.2136C55.1728 34.2526 55.2037 34.2739 55.2594 34.3056C55.3426 34.3531 55.3604 34.3532 55.4161 34.4411C55.1706 34.3779 54.5775 34.0509 54.3909 33.8525L54.3347 33.7804ZM60.3903 33.0162C60.4187 33.3758 60.4763 33.82 60.8081 33.9631C60.9094 34.0068 60.9877 34.049 61.1015 34.1015C61.4175 34.2469 61.6674 34.4046 61.9169 34.6125C61.9996 34.6814 62.0934 34.7443 62.1318 34.868C62.0326 34.8245 61.9423 34.7497 61.8424 34.6905C61.4871 34.4799 60.9602 34.2502 60.5654 34.1258C60.3651 34.0626 60.4115 34.0783 60.353 33.8569C60.2902 33.6194 60.269 33.2187 60.3903 33.0162ZM60.5019 32.6005C60.7914 32.7225 62.3775 34.3833 62.6378 34.6712C63.443 35.5497 63.4735 35.2072 63.24 35.6184C62.9406 35.5715 61.0975 33.4 60.8217 33.0827C60.8053 33.0639 60.7978 33.0542 60.7811 33.0333C60.6918 32.9216 60.4814 32.7034 60.5019 32.6005ZM53.4484 35.4714L53.4409 35.8091L53.9749 35.9706C53.9514 35.9945 53.9088 36.0481 53.8663 36.0704L53.7104 36.108C53.7068 36.1087 53.6981 36.1094 53.6925 36.1121C54.0363 36.821 53.4067 37.0864 53.2066 37.5159C53.0827 37.7817 53.2248 38.1395 53.4258 38.2387C53.7324 38.39 53.9357 38.1084 54.1015 38.0048C54.1482 38.488 54.0398 38.8922 53.6217 38.9642C52.8059 39.1048 53.3599 38.3463 52.8698 37.541L52.5441 37.0282C52.2295 36.5218 52.9484 34.3304 52.9114 33.1329C52.9031 32.866 52.8429 32.7245 52.9117 32.4592C52.9586 32.2782 53.0231 32.0485 53.0681 31.8631C53.1288 31.6135 53.2318 31.6278 53.4482 31.5034C53.5778 31.429 53.8063 31.2639 53.9138 31.2173C54.3517 31.4424 54.3103 31.2231 54.563 31.4537C54.5631 31.4539 54.6101 31.4946 54.6102 31.4947C54.8143 31.6662 55.1391 31.8966 55.4641 31.9482C56.1319 32.0544 57.0236 31.4312 57.3479 31.8435C56.6425 32.1062 55.8778 32.5015 55.0501 32.1592C54.7693 32.043 54.7285 31.8603 54.3785 31.9382C54.3487 32.0847 54.4429 32.763 53.8745 32.4392C53.7004 32.3401 53.6977 32.1819 53.6255 32.0912C53.5873 32.0432 53.599 32.0494 53.5407 32.0275C53.32 32.3325 52.9403 33.2726 53.3972 33.3625C53.4655 33.2717 53.4663 33.1283 53.571 33.0137C53.7681 32.7979 54.2252 32.9611 54.0298 33.3527C53.8296 33.7541 53.482 33.3265 53.4776 33.9019C53.4718 34.656 53.6479 34.6513 53.4484 35.4714ZM61.3223 31.8128C61.3891 32.0489 61.7021 32.4844 61.8322 32.7057C61.9596 32.9223 62.2343 33.4101 62.2654 33.6867C62.1173 33.6395 61.708 33.3642 61.5697 33.262C61.3792 33.1211 60.9044 32.6141 60.7326 32.3783C60.0349 31.4205 61.277 31.0955 61.9892 31.5248C62.3936 31.7685 62.3918 32.1742 62.7122 32.5325C62.9801 32.8321 63.2409 33.2693 63.2773 33.7189C63.2009 33.7708 63.2244 33.7611 63.1549 33.7806C62.9606 33.3954 62.7679 32.9308 62.4828 32.6267C62.1308 32.2511 62.0527 32.4061 61.5469 31.7193C61.4413 31.7334 61.3823 31.7505 61.3223 31.8128ZM56.2503 31.6773C56.2595 31.1745 56.6326 31.2046 56.7149 31.0135C56.707 31.0083 56.6948 30.993 56.6895 31.0014L56.5822 30.9784C56.4912 30.98 56.3006 31.0839 56.2109 31.1342C55.986 31.2603 55.8627 31.3959 55.7791 31.3069C55.5917 31.1077 56.0773 30.6335 56.2056 30.5194C56.4412 30.3097 56.6793 30.1495 56.9802 29.9982C57.6544 29.6593 58.43 29.6958 58.7527 30.3296C58.4973 30.3072 58.3891 30.2337 58.1388 30.3762C57.7782 30.5817 58.2356 30.66 58.4067 30.6849C58.9005 30.7567 59.0469 31.2026 58.694 31.5217C58.3751 31.8101 57.852 31.6008 57.5109 31.4877C56.866 31.2739 56.6881 31.6065 56.2503 31.6773ZM60.6318 31.3023C60.6747 30.9605 60.6401 30.7294 60.8243 30.4548L61.271 29.8682C61.2313 30.2498 61.1082 30.3538 61.1464 30.7999C61.1646 31.0137 61.1089 31.0669 60.9807 31.145C60.9031 31.1925 60.7431 31.2929 60.6318 31.3023ZM55.0329 31.591C54.8668 31.5972 54.7676 31.4934 54.6853 31.3517C54.5981 31.2016 54.695 31.0522 54.765 30.9084C56.0263 28.3176 59.9101 28.3772 60.1262 29.8604C59.2375 29.0719 58.136 29.2317 57.1199 29.6787C56.1291 30.1146 55.5087 30.6194 55.0329 31.591ZM60.2377 29.1162L60.1047 29.12C60.0697 28.8517 60.1157 28.6494 60.4074 28.756C60.429 29.0217 60.2324 28.7495 60.4545 29.1438C60.5023 29.2285 60.4822 29.1851 60.5139 29.282C60.514 29.2818 60.5939 28.923 60.673 29.1709C60.7314 29.3542 60.614 29.4235 60.5703 29.507C60.5741 29.7165 60.5937 30.1417 60.4782 30.2675C60.4571 30.2046 60.3551 29.1239 60.3004 28.9696C60.2687 28.8805 60.2846 28.9253 60.2556 28.8946C60.2007 28.9926 60.2404 28.9959 60.2377 29.1162ZM70.5788 28.1778C70.8704 28.2838 71.188 28.7894 71.3305 29.1437C71.8407 30.4127 71.6349 32.5644 71.293 33.7719C71.0609 33.6329 70.6432 33.1951 70.5037 32.9187C70.3092 32.5333 70.3999 31.8656 70.4635 31.3956C70.5343 30.8722 70.5978 30.4105 70.6323 29.8543C70.6561 29.4721 70.6625 28.5085 70.5788 28.1778ZM64.9296 27.3348C65.0274 27.32 65.0676 27.2826 65.177 27.3062C65.0137 27.6855 65.0479 27.5787 65.3058 27.6902C65.2978 27.7765 65.3021 27.7231 65.2786 27.7869C65.2559 27.8488 65.2553 27.8296 65.2384 27.8908C65.22 27.9574 65.2007 28.0612 65.1894 28.126C65.3471 28.2052 65.4953 28.2414 65.5767 28.4502C65.4758 28.401 65.3411 28.388 65.1922 28.3919C65.2342 28.8185 65.6947 29.0662 65.5931 29.3102C65.4749 29.1696 65.3378 29.0875 65.1626 29.0024C65.1058 29.1933 65.34 29.346 65.2488 29.5794C65.1588 29.4846 65.2164 29.4698 65.0559 29.344C64.9598 29.2686 64.8895 29.1597 64.7739 29.125C64.7904 29.5086 65.0388 29.9431 64.8183 30.2425C64.7434 30.0185 64.8762 30.0454 64.5886 29.6005C64.3239 29.1914 64.5222 29.0901 64.4739 28.9601C64.3289 29.0853 64.3596 29.2996 64.2699 29.5952C64.2599 29.6283 64.2436 29.6809 64.2294 29.7068C64.2238 29.717 64.2112 29.7369 64.2042 29.7467C64.1593 29.8093 64.1966 29.7588 64.1537 29.8034C64.1633 29.5894 64.1732 29.4164 64.1717 29.1989C64.171 29.0839 64.2341 28.7544 64.2157 28.7233C64.0824 28.8558 64.0617 29.0589 63.8947 29.1572C63.9144 29.0308 63.9458 28.908 63.9798 28.7935C64.032 28.6175 64.084 28.6124 64.1135 28.4938C63.9407 28.5147 63.787 28.6542 63.6462 28.554C63.7006 28.4368 63.6714 28.6098 63.894 28.3627C64.063 28.1752 64.0349 28.2524 64.1433 28.1851C64.0559 27.9231 63.547 28.1384 63.4656 27.6415C63.5875 27.707 63.6101 27.7726 63.7786 27.7458C63.8365 27.7366 64.0509 27.6591 64.0908 27.6317C64.0495 27.5257 64.0863 27.6012 64.0239 27.5312C63.8892 27.3802 63.7803 27.3727 63.6267 27.1871C63.533 27.0741 63.4822 26.9377 63.4838 26.7799C63.5879 27.0256 63.8366 27.0897 64.0145 27.1732C64.1001 27.2133 64.1442 27.256 64.2157 27.2866C64.2881 27.1221 64.044 26.8202 64.0728 26.308C64.0745 26.2782 64.0768 26.2503 64.0827 26.2212C64.0974 26.1505 64.0875 26.1852 64.1075 26.1471C64.1628 26.2483 64.1735 26.4797 64.2442 26.6461L64.4059 26.9348C64.5065 27.0645 64.3942 26.9776 64.5205 27.0286C64.5277 26.8287 64.4815 26.6567 64.56 26.5127C64.611 26.6355 64.6741 26.9867 64.7322 27.1022C64.8846 26.9063 64.7961 26.4137 65.0146 26.2898C64.9694 26.5173 64.9584 26.4864 64.9718 26.7708C64.9838 27.0264 64.9383 27.1347 64.9296 27.3348ZM58.9047 26.2762C59.6845 26.2824 60.5308 26.6577 60.7365 27.3256C60.6222 27.3001 60.6249 27.2795 60.5648 27.3243C60.6777 27.448 60.7333 27.5585 60.7434 27.7591C60.5641 27.6074 60.5852 27.4485 59.9016 26.9941C59.4158 26.6711 59.0714 26.7031 58.7472 26.578C58.8773 26.5005 58.8753 26.5822 59.0334 26.4752L59.0654 26.4509C59.1043 26.4291 59.1523 26.423 59.2019 26.4139C59.0967 26.3222 59.0013 26.3505 58.9047 26.2762ZM60.9938 25.9939C61.1258 26.03 61.1044 26.0746 61.3034 26.1681C61.4271 26.2262 61.5603 26.2478 61.6675 26.3098C61.6986 26.4083 61.7439 26.5358 61.7191 26.6414C61.5016 26.608 61.044 26.1932 60.9938 25.9939ZM50.1728 25.9601C50.4188 25.9348 50.7854 26.0005 50.9829 25.9474C51.2711 25.8699 51.2362 25.6408 51.3873 25.4823C51.4152 25.7405 51.1494 25.9908 50.96 26.0967C50.7634 26.2066 50.2068 26.176 50.1728 25.9601ZM70.2582 28.4619C70.255 28.6504 70.2207 28.8961 70.238 29.0715C70.284 29.5364 70.2234 29.2954 70.1943 29.5717C70.1686 29.8164 70.173 30.5058 69.9836 30.6115C69.8757 30.3757 70.0449 29.2068 69.8401 28.8946L69.8123 28.9872C69.8105 28.9952 69.8097 29.0043 69.8077 29.0127L69.7827 29.1087C69.6606 29.096 69.6561 29.0459 69.6821 28.9033C69.7058 28.7736 69.7514 28.7981 69.8182 28.7077L69.7587 28.4619C69.594 28.1561 69.3014 27.3209 69.2466 26.9794C69.1991 26.684 69.1675 26.3865 69.1028 26.0944C69.0412 25.8171 68.9228 25.4904 68.8871 25.2524C69.3667 25.3402 69.8512 25.9009 70.0691 26.3427C70.3255 26.8627 70.2891 27.809 70.2582 28.4619ZM52.0658 24.9263L52.3067 24.7895C52.7073 25.1086 52.8022 25.362 53.6001 25.5757C54.1889 25.7334 54.9167 25.7133 55.5502 25.6651C56.6218 25.5835 57.2448 25.5037 58.2689 25.2527C58.3823 25.225 58.5572 25.1696 58.6666 25.1287C58.7931 25.0815 58.9565 25.0045 59.0839 24.9786C58.9656 25.4846 58.3728 26.5117 57.6247 25.7761C57.5458 25.6985 57.4826 25.623 57.3574 25.6193C56.9688 25.6077 57.0205 26.3071 56.4951 26.3618C55.7075 26.4439 55.8638 25.724 55.4988 25.7858C55.129 25.8485 55.3017 26.5635 54.5728 26.4623C53.9943 26.3821 54.053 25.7013 53.6691 25.7979C53.4356 25.8567 53.1314 26.5667 52.5426 25.7812C52.5328 25.7682 52.5097 25.7319 52.4954 25.7085L52.0658 24.9263ZM58.3309 24.4037C58.4887 24.2974 58.8009 24.2575 59.0268 24.2425C59.0254 24.5264 59.081 24.5427 59.1077 24.7726C59.0372 24.8101 58.6626 24.9157 58.5338 24.9542C58.3522 25.0085 58.2907 24.6143 58.3309 24.4037ZM60.2097 24.7873L60.1884 24.6508L60.8191 24.4376C61.0215 24.9297 60.8693 24.8417 60.933 25.1271C60.9853 25.3617 60.9381 25.2614 60.9266 25.424C60.9147 25.5924 61.022 25.5199 60.9612 25.7815C60.8418 25.8175 60.2983 25.8182 60.23 25.7173C60.0596 25.4657 60.6708 25.6804 60.8185 25.4734C60.5704 25.2993 60.1596 25.6724 60.1048 25.2532C60.2902 25.2639 60.5396 25.264 60.7104 25.2036C60.8241 25.1634 60.8067 25.1908 60.8344 25.08C60.7699 25.0367 60.8402 25.0647 60.7421 25.0422C60.5531 24.999 60.0963 25.1255 59.885 25.1606C59.9016 24.981 60.0545 24.9994 60.1732 24.955C60.3747 24.8796 60.3993 24.909 60.6286 24.8927C60.6579 24.8256 60.529 24.9366 60.6322 24.8005C60.7019 24.7087 60.6647 24.8258 60.7517 24.7111C60.7227 24.6805 60.8063 24.5971 60.4599 24.7157C60.3731 24.7454 60.3043 24.7822 60.2097 24.7873ZM53.004 24.2347C53.0028 24.4455 53.1449 24.9101 53.208 25.1251C52.8472 25.1381 52.2272 24.662 52.6308 24.4151C52.7097 24.3667 52.9084 24.2685 53.004 24.2347ZM59.2679 24.2095L60.0191 24.1719L60.0574 24.52L59.3657 24.6989C59.2594 24.574 59.2059 24.411 59.2679 24.2095ZM57.6247 23.8884C57.7963 24.1994 58.0474 24.8589 58.2005 24.9735C57.9209 24.9913 57.8691 24.7861 57.7825 24.5933C57.7281 24.4723 57.6568 24.4238 57.6312 24.3287C57.6026 24.2221 57.6216 24.0078 57.6247 23.8884ZM67.5484 24.2807C67.6424 24.2123 68.5077 24.5508 68.6841 25.3941C68.7182 25.5567 68.7057 25.9056 68.5775 26.0031C68.5573 25.9695 68.2693 24.6659 67.5484 24.2807ZM60.2617 24.1354L60.887 23.98C60.9605 24.0774 60.9884 24.2045 60.9895 24.3657C60.8473 24.3392 60.9452 24.2795 60.7608 24.3229C60.3852 24.4113 60.3882 24.5244 60.294 24.3956C60.239 24.3205 60.2331 24.22 60.2617 24.1354ZM61.3748 24.6957C61.2418 24.5943 61.1133 24.1631 61.1395 23.9425L61.4035 23.8351C61.3979 23.9977 61.3703 24.1466 61.3604 24.2798C61.3513 24.4016 61.3907 24.6397 61.3748 24.6957ZM52.1024 23.876C52.1318 24.0273 52.2182 24.0278 52.1633 24.1593C52.0741 24.2032 52.0622 24.1738 51.998 24.0893C51.9247 23.9929 51.8792 23.8444 52.0103 23.8538C52.088 23.8593 51.9687 23.8573 52.1024 23.876ZM50.9896 23.9117C51.0115 24.0814 51.066 24.0577 51.0604 24.3114C50.9088 24.4446 50.9293 24.3777 50.8438 24.5898C50.8172 24.6559 50.7759 24.7109 50.7629 24.7785C50.7578 24.8051 50.7895 25.2765 50.4489 25.2415C50.2718 25.2233 50.2394 25.0392 50.0931 25.1348C50.0802 25.2682 50.482 25.4597 49.925 25.443L49.8986 25.2766C49.8285 25.3212 49.8622 25.3353 49.7888 25.2885C49.7665 25.2742 49.7132 25.2096 49.6979 25.1642C49.6595 25.0506 49.6864 24.8831 49.6773 24.757C49.483 24.7452 49.5881 24.8251 49.4892 24.9836C49.4225 25.0906 49.3929 25.0542 49.3601 25.1478L49.3534 25.1842C49.3428 25.2499 49.3855 25.156 49.3511 25.2407C49.1402 25.2237 49.1983 25.0051 49.1892 24.8037C49.1736 24.4617 49.1037 24.5338 49.2808 24.2663C49.3514 24.1599 49.4709 24.0083 49.5314 23.8904C49.6319 23.6944 49.5646 23.5418 49.738 23.4345C50.197 23.1504 50.8372 23.2204 51.134 23.5109C51.2766 23.6505 51.0583 23.8241 50.9896 23.9117ZM59.1718 23.1603C59.2824 23.2455 59.4554 23.2799 59.5735 23.4429C59.6682 23.5736 59.713 23.8217 59.697 24.0207C59.3936 24.0403 59.1364 24.1545 59.1172 23.4822C59.1117 23.2901 59.1086 23.3076 59.1718 23.1603ZM60.0834 24.0003C59.9449 23.9402 59.9345 23.7781 59.9052 23.6505C59.8745 23.517 59.8171 23.3157 59.9863 23.2533C60.2721 23.148 60.2115 23.8031 60.0834 24.0003ZM60.7797 23.7581C60.6529 23.8305 60.5339 23.8569 60.3869 23.8373C60.3228 23.4324 60.4403 23.2566 60.7517 23.1844C60.6636 23.5358 60.765 23.5196 60.7797 23.7581ZM54.9886 22.8859C55.3957 23.1217 55.7528 23.4549 56.0066 23.8832C56.1639 24.1486 56.5414 25.0095 56.5732 25.3844C56.1764 25.5235 55.8811 25.5272 55.415 25.5233C55.1444 24.7941 55.2931 25.0105 54.8164 24.2967C54.7236 24.1579 54.6026 24.0125 54.6116 23.8976C54.7717 23.8453 54.8292 23.8665 54.8732 23.9955C54.9624 23.952 54.9074 23.9016 55.0042 23.8945C55.1509 24.0501 55.2125 24.053 55.3844 24.3356C55.4454 24.4361 55.4236 24.4472 55.5692 24.4231C55.5616 24.18 55.4501 23.7567 55.3563 23.568C55.2654 23.3854 55.242 23.3657 55.119 23.267C54.9942 23.1667 54.981 23.0858 54.9886 22.8859ZM49.7019 23.316C49.811 23.1279 49.8377 23.0256 50.075 22.9745C50.2285 22.9414 50.5968 22.9597 50.716 23.0202C50.608 23.137 50.3739 23.1192 50.1902 23.1562C50.0365 23.1871 49.8174 23.2968 49.7019 23.316ZM66.1957 29.5628C66.1734 29.519 66.072 28.6488 66.0573 28.5226C65.9077 27.2436 65.499 25.9603 65.0455 24.7766C64.9814 24.6096 64.9335 24.5114 64.8699 24.3515C64.5947 23.6598 64.0726 22.9363 63.2812 23.0035C63.3006 22.7627 63.4601 22.7426 63.6506 22.8022C64.0649 22.9319 64.3373 22.8875 64.7476 23.5265C65.4336 24.5945 66.0091 27.0442 66.1443 28.3977C66.1596 28.5508 66.2832 29.4532 66.1957 29.5628ZM58.0735 24.2591C58.0692 24.2529 58.0626 24.2354 58.0607 24.2402C58.0588 24.245 58.0508 24.2255 58.0481 24.2216C57.8001 23.8344 57.7158 23.7939 57.7881 23.4228L57.9266 22.6449C57.9633 22.5447 58.0091 22.5135 58.0451 22.4242L58.1331 22.5241C58.1549 22.5487 58.1497 22.5441 58.178 22.5724L58.2304 22.6205C58.0759 23.2443 58.0422 23.541 58.0735 24.2591ZM61.4877 23.4814C61.3813 23.5596 61.3448 23.6003 61.1739 23.6175L61.0966 23.5026C61.048 23.3798 61.0589 23.0793 61.1112 22.9807C61.1286 22.948 61.384 22.7693 61.5159 22.6168C61.5118 22.8343 61.3958 22.7844 61.4352 23.0128C61.4675 23.2003 61.5289 23.196 61.4877 23.4814ZM63.8209 22.4742C64.2376 22.5372 64.6635 22.6988 64.9918 22.8957C65.2145 23.0292 65.7667 23.4627 65.8363 23.6945C64.984 23.6548 64.9171 23.3901 64.2728 22.8372C64.1557 22.7368 63.866 22.5389 63.8209 22.4742ZM53.7129 23.4029C53.5752 23.2926 53.4826 23.2379 53.5427 22.9907C53.5618 22.912 53.5892 22.8206 53.6179 22.7301C53.6488 22.6325 53.6559 22.5554 53.6801 22.4655C53.7115 22.3482 53.7586 22.357 53.8157 22.2705C53.9235 22.1073 54.0065 21.8012 54.2008 21.6249C54.4471 21.7058 54.627 22.2564 54.4119 22.6648C54.2814 22.9126 53.9525 23.3058 53.7129 23.4029ZM58.2756 22.2689C58.4881 22.3987 58.2457 22.5171 58.9868 23.051C58.9737 23.1666 58.9146 23.274 58.9002 23.4499C58.8609 23.9287 59.0736 23.9189 58.6727 23.9987C58.5882 24.0155 58.4647 24.042 58.3716 24.0189C58.131 23.9589 58.2156 23.0714 58.2839 22.8446C58.43 22.3593 58.1721 22.4384 58.2756 22.2689ZM56.5924 22.3526C56.9266 22.3949 57.0816 22.5384 57.0753 22.8965C56.9924 22.8337 56.9398 22.7284 56.8567 22.6354C56.8228 22.5974 56.7815 22.5541 56.7413 22.5126L56.5924 22.3526ZM61.6996 22.9873C61.5955 22.2154 62.4507 21.7971 63.194 22.0903C63.4603 22.1954 63.5143 22.2734 63.7159 22.3918C63.6314 22.3851 63.5514 22.3532 63.4565 22.3284C63.346 22.2995 63.24 22.293 63.1252 22.2911C62.1857 22.275 61.9076 22.9009 61.6996 22.9873ZM52.1024 23.876C52.1965 23.7502 52.3851 23.5835 52.4862 23.4589L53.2014 22.5338C53.3193 22.3879 53.4792 22.1648 53.5992 22.0885C53.6216 22.2537 53.573 22.2836 53.5574 22.4671C53.533 22.7542 53.3561 22.7749 53.1759 22.8754C53.0622 22.9389 53.0623 22.9967 52.9988 23.1173C52.5466 23.9756 52.6707 23.4281 52.4321 23.7062L52.2277 23.9273C52.1873 23.9079 52.1552 23.8941 52.1024 23.876ZM59.1077 21.3087C59.1651 21.7647 58.9761 21.8316 59.2257 22.1246C59.4198 22.3526 59.5111 22.3824 59.6285 22.7236C59.2027 22.5808 59.1722 22.3591 58.8898 21.9306C58.8403 21.8556 58.8111 21.7745 58.8473 21.6644C58.8765 21.5759 59.0472 21.3775 59.1077 21.3087ZM56.435 21.3744C56.7296 21.4584 56.7857 21.8839 56.896 22.1783L56.919 22.2376C56.668 22.1137 56.4834 21.6495 56.435 21.3744ZM60.3881 22.5431C60.777 22.6094 61.206 21.6856 61.7192 21.6172C61.9586 21.5852 62.1893 21.6499 62.2574 21.8567C61.7389 21.8998 61.6181 22.0188 61.284 22.432C61.0542 22.7164 61.0622 22.6889 60.7424 22.8355C60.4696 22.9606 60.4926 23.0433 60.3417 23.2945C60.2419 23.2386 60.222 23.1082 60.078 23.0784C59.8979 23.0411 59.848 23.1503 59.7678 23.2381C59.0214 23.1819 57.9566 21.9812 58.62 21.8481C58.7256 22.1729 58.8157 22.1598 59.1365 22.4987C59.3175 22.69 59.4277 22.812 59.6543 22.8572C59.8753 22.9012 59.6873 22.8879 59.8538 22.9605C59.9297 22.8753 59.851 22.9563 59.8983 22.8191C59.9257 22.7398 60.0101 22.6597 60.0624 22.5972C60.0994 22.5532 60.1305 22.517 60.1567 22.4829C60.5424 21.9801 60.5331 22.2084 60.9955 21.6299C60.9981 21.6267 61.0325 21.5808 61.0341 21.5787C61.0362 21.5758 61.1182 21.4584 61.1193 21.4559C61.1689 21.3384 61.1102 21.2572 61.1683 21.0768C61.3039 21.0303 61.5532 21.1541 61.2457 21.4987C60.9704 21.8073 61.0183 21.9649 60.5474 22.3788C60.5074 22.414 60.4028 22.4705 60.3881 22.5431ZM59.9532 21.0834C59.9831 20.7806 60.228 21.109 60.234 21.1132C60.3663 21.2066 60.4762 21.1244 60.6259 21.2986C60.6151 21.4149 60.5293 21.4746 60.4779 21.5981C60.406 21.7706 60.4608 21.6573 60.2843 21.856L59.9972 21.8488C59.946 21.9524 60.0624 21.8739 59.989 21.9674C59.952 22.0145 59.8791 22.0175 59.8098 22.0493C59.6784 22.1096 59.5378 22.2326 59.5526 21.9479C59.3901 21.9297 59.2578 21.9231 59.3097 21.7349C59.3122 21.7259 59.3363 21.6593 59.3405 21.6433C59.3858 21.4685 59.2791 21.423 59.4129 21.3788L59.4545 21.3953C59.5837 21.4794 59.5027 21.4681 59.7556 21.5013C59.7681 21.6381 59.719 21.6151 59.6831 21.7498C59.7515 21.6702 59.783 21.6488 59.814 21.501C60.0964 21.4158 60.136 21.4637 60.1166 21.1449L60.0285 21.1074C59.9922 21.0942 60.009 21.1121 59.9532 21.0834ZM54.3442 21.1998C54.4587 21.0762 54.3685 20.8862 54.459 20.7753C54.5862 20.8443 54.6103 21.0596 54.6076 21.2375C54.5983 21.8653 54.1198 21.6877 54.1619 21.0821C54.1749 20.8967 54.2208 20.8994 54.2174 20.7147C54.213 20.4755 54.1837 20.4991 54.3155 20.4287C54.36 20.5338 54.389 20.7252 54.3791 20.8696C54.3578 21.181 54.2455 20.8937 54.3442 21.1998ZM60.0468 20.7131C60.0601 20.6091 60.0588 20.6451 60.0463 20.5427L60.0074 20.3947C60.0054 20.3891 60.0018 20.3786 59.9973 20.3717C59.8294 20.4071 59.97 20.3651 59.8818 20.4655C59.8225 20.533 59.9374 20.4751 59.8252 20.5213C59.8202 20.5121 59.8147 20.4881 59.8132 20.4924L59.7913 20.3753C59.8024 20.17 59.9973 20.2501 60.1696 20.2295C60.2232 20.3258 60.205 20.304 60.2901 20.3603L60.3379 20.212C60.5266 20.1573 60.3868 20.2345 60.5713 20.2243C60.6192 20.1423 60.579 20.2127 60.5987 20.1277L60.6286 20.0072L60.7149 20.0105C60.8491 20.4063 60.52 20.3086 60.4292 20.4679C60.3781 20.5576 60.3863 20.6682 60.3903 20.7758L60.4218 20.9129C60.5491 20.9118 60.4928 20.8711 60.6455 20.9082C60.5922 21.3391 60.1701 20.8689 60.0499 20.8529C59.7626 20.8148 59.4255 20.9134 59.2916 21.1911C59.285 21.1853 59.2748 21.1679 59.2717 21.1737L59.2099 21.0982C59.1903 21.0592 59.1877 21.0168 59.1816 20.9793C59.1567 20.8271 59.1344 20.8199 59.1131 20.711C59.0871 20.578 59.1476 20.2358 59.1938 20.1435C59.3374 20.1676 59.2457 20.1946 59.2537 20.3696C59.4482 20.481 59.3949 20.4914 59.4808 20.3434C59.5653 20.4563 59.599 20.4743 59.6231 20.5608C59.561 20.6442 59.5759 20.5969 59.4977 20.6689C59.4796 20.6855 59.4706 20.6973 59.461 20.7095C59.5492 20.8727 59.5364 20.7996 59.6876 20.7678C59.8307 20.7378 59.9772 20.7843 60.0468 20.7131ZM54.7121 20.4045C54.5495 20.157 54.6237 20.2803 54.7891 19.6551L54.832 19.5291C54.9578 19.7278 54.8521 20.2186 54.7121 20.4045ZM60.7655 19.6628C60.9458 19.6525 61.2447 19.683 61.3453 19.7924C61.4084 19.8611 61.3931 20.023 61.3942 20.1314C61.396 20.308 61.4099 20.3285 61.3174 20.4348C61.1903 20.4026 61.0947 20.1899 60.9939 20.0767C60.8778 19.9464 60.7224 19.9136 60.7655 19.6628ZM59.2389 19.7614L59.4647 19.7093L59.4537 19.9028C59.4184 19.8868 59.3824 19.8754 59.3434 19.8571C59.1475 19.765 59.2919 19.8211 59.2389 19.7614ZM59.7142 19.8675C59.6137 19.5485 59.9238 19.5979 60.2337 19.6356C60.3102 19.6449 60.3869 19.6344 60.475 19.6421L60.4844 19.7613L60.3127 19.7919L60.2999 20.0189C60.1915 20.0269 60.1748 20.0495 60.1569 19.942C60.1395 19.8394 60.17 19.7645 60.1948 19.6746C60.0731 19.7057 60.061 19.72 59.9603 19.7834C59.7911 19.8902 59.8405 19.8787 59.7142 19.8675ZM50.5128 21.0525C50.515 20.4725 50.5317 20.8749 50.845 20.1626C50.9786 19.8587 50.8933 19.7372 51.4745 19.5565C51.9836 19.3236 52.6289 19.3081 53.1271 19.577C53.1456 19.8138 52.8767 20.2228 52.7209 20.3889C52.5098 20.6139 52.1833 20.4839 51.9646 20.871L51.6695 21.4253C51.7661 21.3709 51.8469 21.279 51.9596 21.2178C51.9595 21.218 51.7614 21.6326 51.905 21.7668C51.9298 21.7899 52.4381 21.8667 52.6096 21.6549C52.7708 21.456 52.5658 21.354 52.6698 21.1659C52.6794 21.1484 52.6987 21.1184 52.7141 21.0914C52.7663 20.9995 52.7527 21.0068 52.8307 20.9435C52.8205 21.4245 52.8674 21.7255 52.5584 22.0589C52.2477 22.3942 52.1427 22.241 51.9906 22.3752C51.8721 22.4797 51.6663 22.7582 51.6024 22.882C51.5065 23.0681 51.6472 23.0694 51.5607 23.2388C51.4221 23.2192 51.518 23.1692 51.2395 23.0578C51.0988 23.0015 51.0167 22.9732 50.8593 22.9346C50.5602 22.8613 50.281 22.8487 49.9399 22.88C49.9646 22.7161 50.0166 22.5525 50.0621 22.397C50.1057 22.2478 50.1382 22.0872 50.1949 21.9278C50.3347 21.5343 50.4976 21.5023 50.5128 21.0525ZM53.61 19.6071C53.6779 19.5692 53.6694 19.5487 53.7416 19.5033C53.8723 19.6036 54.1055 19.7947 53.9711 19.9653C53.9008 19.9374 53.7086 19.705 53.61 19.6071ZM51.423 19.331C52.1659 19.0966 52.3664 19.2227 52.8207 19.1601C53.0034 19.1349 52.8212 19.0935 53.0922 19.1291C53.206 19.144 53.3214 19.1327 53.4277 19.1665C53.432 19.1679 53.7568 19.3203 53.6392 19.4623C53.6073 19.5008 53.5716 19.5157 53.5407 19.5338C53.4383 19.4958 53.3137 19.3126 53.0242 19.2673L53.0189 19.2975C53.0185 19.3018 53.0181 19.3175 53.0182 19.3212C53.0186 19.3391 53.0269 19.3292 53.0242 19.3429C52.677 19.3659 52.4804 19.1726 51.7705 19.3218C51.6788 19.3411 51.5013 19.3986 51.423 19.331ZM59.653 20.4797C59.4745 20.2607 59.4658 19.1533 59.653 18.9662C59.9254 19.0447 59.5848 19.2823 59.6984 20.0845C59.7206 20.2415 59.7436 20.3712 59.653 20.4797ZM52.6318 19.0181C52.9008 18.6984 52.9903 18.7177 53.1425 18.8355C53.2112 18.8887 53.244 18.9243 53.2725 19.0429L52.6318 19.0181ZM59.7229 18.8084C59.7342 18.7281 59.7737 18.6381 59.8076 18.5741C59.8988 18.4022 60.051 18.2796 60.1253 18.0226C60.1976 18.3222 60.2442 18.6207 60.243 18.9622C60.2414 19.4601 60.2275 19.501 59.7852 19.5537C59.8176 19.3509 59.9382 19.0729 59.8773 18.8643L59.7229 18.8084ZM51.4396 19.1779C51.4732 19.0605 51.6208 18.911 51.7282 18.8709C51.8339 18.8315 51.8851 18.8784 51.9687 18.8189C52.0351 18.7718 52.0222 18.6999 52.0774 18.613L52.528 18.6373L52.4013 18.9384C52.3643 19.0268 52.4113 18.9957 52.3355 19.0332C51.9367 19.0327 51.7698 19.1217 51.4396 19.1779ZM51.0995 18.6854C51.0984 18.161 51.1196 17.5994 51.4818 18.186C51.6219 18.4128 51.6275 18.693 51.4478 18.9047L51.1826 19.1312C51.131 18.977 51.1 18.898 51.0995 18.6854ZM59.6376 18.7603C59.5464 18.9868 59.5236 18.769 59.5137 19.114C59.5093 19.2636 59.5371 19.4907 59.4563 19.5785C59.4023 19.6371 59.1565 19.6927 59.1106 19.6377C58.9795 19.4812 59.2426 18.479 59.7894 18.4114L59.6376 18.7603ZM60.2756 18.2078C60.2819 18.2139 60.2901 18.2216 60.2944 18.2262C60.6011 18.5508 60.7882 18.9505 60.7366 19.435L60.3209 19.4424C60.324 18.9629 60.3152 18.6802 60.2756 18.2078ZM53.4461 19.0616C53.4239 18.7411 53.6863 18.5855 53.9437 18.4127C54.0634 18.3325 54.089 18.2894 54.1733 18.2614C54.1264 18.4844 53.9941 18.6348 53.9229 18.854C53.8455 19.0922 53.7736 19.1471 53.5885 19.1033C53.5484 19.0938 53.501 19.0858 53.4461 19.0616ZM53.6127 9.52399C53.771 9.42812 54.1046 9.31445 54.2978 9.23227C54.9144 8.96987 55.8531 8.59044 56.4964 8.52737C56.5791 8.68137 56.6106 8.93754 56.6747 9.11576C56.7418 9.30213 56.8168 9.48106 56.8928 9.65133C57.0111 9.91705 57.2756 10.4867 57.2099 10.8389C56.9713 10.9188 56.6925 10.9865 56.4435 11.0661C56.1991 11.1443 55.9805 11.2258 55.7099 11.3203L54.2868 11.8752C54.1913 11.7043 54.0344 10.9317 53.9608 10.6747L53.6127 9.52399ZM57.716 12.044C56.9536 12.3212 56.0629 12.6003 55.0587 12.8429C55.0389 12.7643 55.0194 12.6856 55.0005 12.6069C54.9847 12.5413 54.9596 12.4447 54.9392 12.3507C55.0284 12.3129 55.1186 12.2768 55.2056 12.2414C55.4678 12.1347 55.7316 12.0318 55.9959 11.9304C56.4271 11.7651 56.8775 11.5871 57.3171 11.4471C57.3352 11.4414 57.3674 11.431 57.3949 11.425C57.3999 11.4318 57.4046 11.4385 57.4082 11.4436C57.4734 11.5375 57.5132 11.6534 57.5581 11.7579C57.6034 11.8631 57.6531 11.9578 57.716 12.044ZM40.5998 28.4373C41.7589 33.6667 44.0916 38.7495 47.1827 42.7734C50.7677 47.4403 55.3839 50.7857 60.5371 52.4536C65.6907 50.7857 70.3064 47.4398 73.891 42.7734C76.9827 38.7491 79.3154 33.6664 80.4745 28.4373C77.5291 25.7843 78.3324 22.6823 78.9221 20.4056C79.4667 18.3041 79.9005 16.6305 78.6853 14.435C76.547 14.9249 74.3778 15.1733 72.2329 15.1733C66.516 15.1733 62.2452 13.4079 60.5371 12.5678C59.5824 13.0373 57.8272 13.7958 55.4666 14.3736C55.4032 14.135 55.3385 13.8967 55.2741 13.6582C56.6682 13.3192 57.8463 12.9153 58.7671 12.5471L59.0275 12.6023L58.9699 12.465C59.5665 12.22 60.0442 11.9948 60.3894 11.8209L60.5371 11.7463L60.6849 11.8209C62.2413 12.6051 66.483 14.4293 72.2329 14.4293C74.4081 14.4293 76.6098 14.1678 78.7771 13.6519L79.0147 13.596L79.1453 13.8155C80.6806 16.4 80.1516 18.4422 79.5913 20.6044C79.0116 22.8418 78.2907 25.6267 81.078 28.0054L81.2493 28.1512L81.2001 28.3797C80.0349 33.7974 77.6302 39.0775 74.4274 43.2463C70.7318 48.0575 65.9628 51.4989 60.636 53.1985L60.5371 53.2301L60.4383 53.1985C55.1119 51.4993 50.3429 48.0575 46.6461 43.2463C43.4441 39.0775 41.039 33.7979 39.8739 28.3797L39.8246 28.1512L39.9959 28.0054C42.7833 25.6267 42.0623 22.8418 41.4822 20.6048C40.9223 18.4422 40.393 16.4 41.9286 13.8155L42.0593 13.596L42.2969 13.6519C44.4638 14.1678 46.6658 14.4293 48.841 14.4293C50.6975 14.4293 52.3964 14.239 53.8988 13.9551C53.9584 14.1956 54.0187 14.4359 54.0804 14.6756C52.5262 14.9731 50.7657 15.1733 48.841 15.1733C46.6966 15.1733 44.5266 14.9249 42.3886 14.435C41.1739 16.6305 41.6069 18.3041 42.1518 20.4056C42.7417 22.6823 43.5453 25.7843 40.5998 28.4373ZM23.0194 62.9981C22.1698 62.6425 21.5159 62.4594 20.5202 62.6525C19.4379 62.8556 18.5702 63.5074 17.9066 64.6138C17.7148 64.9402 17.5333 65.2675 17.3621 65.5957L16.7863 66.7003L17.3197 68.3027C17.4654 68.7401 17.6212 69.1784 17.787 69.6179C18.3621 71.11 19.1645 72.0882 20.2039 72.5618C20.536 72.7158 20.8434 72.8156 21.125 72.8573C21.5373 72.9087 22.0479 72.8436 22.6556 72.6583C22.6673 72.733 22.6651 72.8242 22.6433 72.9256C22.6257 73.0297 22.5561 73.1539 22.4457 73.3029C22.331 73.449 22.1694 73.6012 21.9652 73.7623C21.7596 73.9197 21.4959 74.0495 21.1727 74.148C20.6155 74.318 19.9796 74.3307 19.2624 74.187C17.9576 73.9261 16.8942 73.1839 16.0735 71.9643C15.6736 71.3699 15.3276 70.7327 15.0339 70.047C14.8133 70.4456 14.5691 70.8561 14.3017 71.2772C13.9412 71.8509 13.5181 72.3641 13.0295 72.8226C12.1304 73.6663 11.0096 74.0823 9.66849 74.0677C9.06859 74.0613 7.17708 73.6764 6.29712 72.2461C7.14673 72.6018 7.80049 72.7849 8.79628 72.5918C9.87855 72.3886 10.7462 71.7368 11.4099 70.6305C11.6017 70.304 11.7832 69.9768 11.9544 69.6485L13.3 67.0675C13.3057 67.0565 13.3117 67.0458 13.3175 67.0349L13.3177 67.0349L13.6871 66.3263L13.4786 65.7002L13.4785 65.7003C13.4735 65.6857 13.4684 65.6714 13.4635 65.6567L12.3186 62.2178C12.1731 61.7804 12.0173 61.342 11.8514 60.9026C11.2762 59.4105 10.4738 58.4323 9.4345 57.9586C9.10241 57.8046 8.79492 57.7049 8.51328 57.6631C8.10111 57.6118 7.5905 57.6768 6.98279 57.8622C6.97105 57.7875 6.97327 57.6963 6.99508 57.5949C7.01262 57.4907 7.08226 57.3666 7.19274 57.2176C7.30729 57.0715 7.46888 56.9193 7.67325 56.7581C7.87879 56.6007 8.14248 56.471 8.46562 56.3725C9.02291 56.2025 9.65871 56.1898 10.3759 56.3334C11.6807 56.5944 12.7441 57.3366 13.5648 58.5561C14.0108 59.219 14.3897 59.9352 14.7039 60.7122C15.0211 61.4884 15.2979 62.2316 15.5331 62.9381L15.6037 63.1502C15.8154 62.8932 16.043 62.6506 16.2869 62.4216C17.1861 61.5779 18.3069 61.1619 19.648 61.1765C20.5165 61.1858 22.3759 61.7574 23.0194 62.9981ZM34.6182 59.3327C35.1504 59.3327 35.7257 59.4277 36.3356 59.6221C36.7988 59.7669 37.2101 59.9635 37.5754 60.212C37.9293 60.4691 38.2112 60.8018 38.4241 61.2079C38.634 61.6162 38.7779 62.0461 38.8555 62.5019C38.9476 63.1219 38.9907 63.7009 38.9907 64.2367V64.3317L38.9994 64.8956V67.2429C39.3265 67.3534 39.6428 67.4074 39.9484 67.4074C40.2811 67.4074 40.6225 67.3433 40.9766 67.212C41.5484 66.9909 41.9665 66.6608 42.2226 66.2219C42.4215 65.8838 42.5432 65.5343 42.5895 65.1737V64.1416C42.5895 63.8888 42.6499 63.6836 42.7678 63.528C42.8858 63.3725 43.0382 63.2429 43.2224 63.1392C43.4065 63.0355 43.6136 62.9361 43.838 62.8432C44.0911 62.7439 44.3356 62.6229 44.5744 62.4868C44.8132 62.3485 45.0232 62.1671 45.2044 61.9402C45.2044 66.9609 45.2102 69.698 45.2274 70.1538C45.2389 70.5643 45.3137 71.0115 45.446 71.4955C45.5812 71.9815 45.8286 72.4006 46.1882 72.7549C46.5478 73.1092 47.0714 73.2971 47.756 73.3187C48.3025 73.3187 48.7571 73.2302 49.1253 73.0509C49.4935 72.8715 49.7697 72.6426 49.9566 72.3661C50.1408 72.0895 50.2357 71.8065 50.2357 71.5148C50.2357 71.1649 50.0947 70.8473 49.8157 70.5622C49.5396 70.2769 49.1167 70.102 48.5499 70.035C48.4579 70.0264 48.3716 70.022 48.2882 70.022C48.0293 70.022 47.7761 70.0609 47.5287 70.1387C47.2814 70.2165 47.0569 70.3353 46.8556 70.4973C46.7262 70.2727 46.66 70.0631 46.66 69.8687C46.66 69.5987 46.7607 69.3632 46.9649 69.1579C47.1663 68.9527 47.4338 68.7928 47.7646 68.6805C48.0955 68.566 48.4492 68.5098 48.8261 68.5098C49.203 68.5098 49.577 68.5746 49.9481 68.7042C50.3191 68.836 50.6442 69.0456 50.9261 69.3351C51.2052 69.6246 51.4094 70.0004 51.5331 70.4649C51.5647 70.6162 51.582 70.7674 51.582 70.9207C51.582 71.1865 51.5417 71.4414 51.4554 71.6855C51.1706 72.4632 50.6068 73.0746 49.7697 73.5218C48.9326 73.969 48.0206 74.1915 47.0311 74.1915C46.2055 74.1915 45.446 74.0338 44.7557 73.7184C44.2574 73.4734 43.8455 73.1808 43.5199 72.8401C42.8324 72.1205 42.5895 70.7679 42.5895 69.8136V68.0385C41.245 68.675 40.3702 69.0122 38.9994 69.4541V70.4843C38.9994 70.8084 39.086 71.1194 39.2583 71.4177C39.3079 71.5035 39.3662 71.5835 39.4341 71.6571L40.2078 72.6031C40.0498 72.9339 39.4676 73.897 39.3619 74.1613C38.519 73.7227 37.8861 73.2993 37.4632 72.891C37.0375 72.4848 36.7527 72.042 36.6117 71.5667C36.4679 71.0892 36.3931 70.5233 36.3874 69.8687C36.3874 69.6246 36.3988 69.3783 36.4218 69.1299V64.8956L36.4046 64.0854C36.4046 63.5324 36.3845 63.0053 36.3442 62.5019C36.278 61.7609 36.0594 61.1949 35.6883 60.8061C35.4956 60.6116 35.2769 60.4496 35.0295 60.3157C34.7822 60.1839 34.5405 60.0845 34.3046 60.0175C34.0688 59.9527 33.8185 59.9138 33.5567 59.8987C33.292 59.8836 33.0734 59.8749 32.898 59.8749C32.9094 59.8339 32.9382 59.7864 32.9871 59.7367C33.036 59.687 33.1309 59.6308 33.2748 59.5725C33.4157 59.5142 33.5998 59.458 33.8243 59.4083C34.0515 59.3565 34.3133 59.3327 34.6182 59.3327ZM31.6317 74.1915C30.9876 74.1915 30.4818 74.0365 30.1173 73.7295C29.7529 73.4196 29.4953 72.9993 29.3476 72.4629C29.1026 72.9815 28.7758 73.3988 28.3674 73.7147C27.9589 74.0335 27.4343 74.1915 26.7902 74.1915C26.341 74.1915 25.9168 74.1111 25.5147 73.9501C25.1125 73.7922 24.7481 73.5507 24.4245 73.2318C24.0632 72.8652 23.7899 72.4331 23.6107 71.9384C23.4285 71.4436 23.3375 70.9399 23.3375 70.4273C23.3375 70.1203 23.372 69.8133 23.438 69.5123C23.6611 68.6272 24.0663 67.9089 24.6538 67.3545C25.2445 66.8002 25.9388 66.3174 26.7431 65.9061C27.1546 65.6885 27.5914 65.474 28.0501 65.2594C28.8418 64.9047 29.5895 64.5053 30.2933 64.0672C30.9939 63.6291 31.4997 63.0926 31.8076 62.4638V71.0651C31.8076 71.3632 31.8296 71.6076 31.8799 71.7983C31.9301 71.992 32.0275 72.1321 32.1783 72.2274C32.3291 72.3199 32.5491 72.3675 32.8381 72.3675C33.1303 72.3675 33.3816 72.2841 33.5827 72.1172C33.7837 71.9502 33.9408 71.7446 34.0508 71.4943C34.1608 71.2439 34.2268 70.9816 34.2456 70.7075H35.075C34.9744 71.4764 34.7923 72.0874 34.5221 72.5404C34.299 72.9308 34.0288 73.2587 33.7115 73.5269C33.1962 73.971 32.5019 74.1915 31.6317 74.1915ZM27.5725 72.3914C27.739 72.3914 27.9181 72.3497 28.116 72.2602C28.4208 72.1112 28.6376 71.8847 28.7632 71.5896C28.8889 71.2916 28.9518 70.9846 28.9518 70.6627V66.0372L28.4553 66.3055C27.7076 66.7138 27.1704 67.1489 26.8436 67.6078C26.4227 68.2069 26.209 69.0295 26.209 70.0786C26.209 70.9399 26.4069 71.5956 26.7997 72.0426C27.0007 72.2751 27.2583 72.3914 27.5725 72.3914ZM60.0183 74.1915C58.361 74.1915 57.069 73.5988 56.1453 72.4164C55.2245 71.2311 54.7641 69.4769 54.7641 67.1509V65.7273C54.7641 64.9708 54.8829 64.3215 55.1206 63.7794C55.3582 63.2344 55.67 62.7668 56.0562 62.3767C56.4423 61.9895 56.861 61.65 57.3125 61.367C57.764 61.0811 58.2125 60.822 58.6521 60.5897C59.1867 60.3157 59.6471 60.0387 60.0362 59.7588C60.4253 59.4818 60.6748 59.1571 60.7846 58.7908C62.5489 60.0119 63.431 61.1526 63.431 62.2129C63.431 62.5911 63.3271 62.9634 63.1222 63.3297C62.9142 63.696 62.644 63.976 62.3024 64.1696C61.9638 64.3661 61.5836 64.4644 61.1589 64.4644V63.8599C61.1589 63.4131 61.0698 62.9842 60.8945 62.5732C60.7163 62.1652 60.4282 61.8585 60.0272 61.6529C59.7837 61.5308 59.5461 61.4713 59.3144 61.4713C59.0768 61.4713 58.8362 61.5308 58.5926 61.6529C58.1976 61.8585 57.9095 62.1652 57.7313 62.5732C57.5501 62.9842 57.4611 63.4131 57.4611 63.8599V67.0198C57.4611 67.6244 57.5145 68.2737 57.6214 68.9706C57.7284 69.6645 57.9303 70.3019 58.2214 70.8856C58.5154 71.4664 58.9342 71.8893 59.4807 72.1514C59.9262 72.3361 60.4253 72.4284 60.9747 72.4284C61.3816 72.4284 61.7856 72.3807 62.1866 72.2854C62.5846 72.1901 62.9321 72.0501 63.2202 71.8714C63.8083 71.5051 64.2597 71.0107 64.5775 70.3883L65.0647 70.5878C64.8627 71.386 64.5122 72.0501 64.0132 72.5862C63.5142 73.1223 62.9172 73.5244 62.2252 73.7894C61.5302 74.0575 60.7966 74.1915 60.0183 74.1915ZM72.9058 74.1915C72.297 74.1915 71.8188 74.0366 71.4743 73.7299C71.1297 73.4201 70.8862 73.0002 70.7466 72.4641C70.5149 72.9823 70.206 73.3993 69.8198 73.715C69.4337 74.0337 68.9377 74.1915 68.3288 74.1915C67.9041 74.1915 67.5031 74.1111 67.123 73.9503C66.7428 73.7924 66.3982 73.5512 66.0923 73.2325C65.7507 72.8662 65.4923 72.4343 65.323 71.9399C65.1508 71.4455 65.0647 70.9422 65.0647 70.43C65.0647 70.1232 65.0973 69.8164 65.1597 69.5156C65.3705 68.6311 65.7537 67.9133 66.3091 67.3593C66.8675 66.8054 67.524 66.3229 68.2843 65.9119C68.6734 65.6945 69.0862 65.48 69.5199 65.2656C70.2684 64.9112 70.9752 64.5121 71.6405 64.0743C72.3029 63.6365 72.7811 63.1004 73.0722 62.472V71.0673C73.0722 71.3651 73.093 71.6094 73.1405 71.7999C73.188 71.9935 73.2801 72.1335 73.4226 72.2289C73.5652 72.3211 73.7731 72.3688 74.0464 72.3688C74.3226 72.3688 74.5602 72.2854 74.7503 72.1187C74.9404 71.9519 75.0889 71.7463 75.1929 71.4962C75.2968 71.246 75.3592 70.9839 75.377 70.7099H76.1611C76.0661 71.4783 75.8938 72.0889 75.6384 72.5416C75.4275 72.9317 75.172 73.2593 74.8721 73.5273C74.385 73.9711 73.7286 74.1915 72.9058 74.1915ZM69.0684 72.3926C69.2258 72.3926 69.3951 72.351 69.5823 72.2616C69.8703 72.1127 70.0753 71.8863 70.1941 71.5915C70.3129 71.2937 70.3723 70.9869 70.3723 70.6652V66.0429L69.903 66.311C69.1961 66.719 68.6882 67.1538 68.3793 67.6125C67.9813 68.2111 67.7793 69.0331 67.7793 70.0815C67.7793 70.9422 67.9665 71.5974 68.3377 72.0442C68.5278 72.2765 68.7714 72.3926 69.0684 72.3926ZM75.8812 79.9946C75.5396 79.9946 75.2449 79.966 74.9962 79.9073C74.7481 79.8488 74.5462 79.7845 74.3938 79.7178C74.2388 79.6499 74.1338 79.5849 74.0832 79.5283C74.0313 79.4702 73.9994 79.4161 73.987 79.3687C74.1826 79.3687 74.4186 79.3588 74.7012 79.3413C74.9838 79.3239 75.2512 79.2801 75.5055 79.2041C75.7605 79.128 76.0215 79.0131 76.288 78.8601C76.5556 78.7064 76.7931 78.5203 76.9991 78.294C77.4017 77.852 77.641 77.1973 77.7072 76.3367C77.8963 73.8782 77.7911 72.853 77.7911 70.3839C77.7911 70.0922 77.8531 69.8554 77.9804 69.6758C78.1077 69.4963 78.2723 69.3467 78.4742 69.227C78.673 69.1073 78.8934 68.9951 79.1356 68.8879C79.4089 68.7707 79.676 68.6336 79.9337 68.474C80.1914 68.3169 80.4182 68.1049 80.6107 67.8432V73.4958C81.1262 73.4908 81.6106 73.4559 82.0671 73.391C82.5205 73.3237 82.9304 73.1791 83.2937 72.9547C83.8651 72.5907 84.1508 72.1194 84.1508 71.5459C84.1508 70.6557 83.539 69.6958 82.3217 68.6685C81.4243 67.908 80.3653 67.1974 79.145 66.5341C78.6295 66.2623 78.1543 65.9631 77.7165 65.6365C77.0923 65.1727 76.7818 64.6839 76.7818 64.1679C76.7818 63.8312 76.8936 63.5245 77.1172 63.2428C77.3407 62.9635 77.6203 62.7042 77.9494 62.4623C78.2785 62.2205 78.6109 61.9961 78.9462 61.7866L79.4461 61.4649C79.2568 61.6445 79.0797 61.8415 78.9089 62.0534C78.7381 62.2653 78.6543 62.4922 78.6543 62.7366C78.6543 63.1007 78.94 63.4822 79.5083 63.8761C79.9461 64.1828 80.4803 64.5145 81.1106 64.8685C81.6386 65.1652 82.1913 65.4969 82.7658 65.8584C83.3434 66.2224 83.9117 66.6289 84.4675 67.0827C84.893 67.4293 85.2842 67.7958 85.6413 68.1847C86.4239 69.0525 86.8152 69.9002 86.8152 70.7281C86.8152 70.9375 86.7903 71.1469 86.7437 71.3564C86.5916 71.9748 86.1568 72.5184 85.4426 72.9846C84.598 73.5357 83.5297 73.9196 82.2379 74.1391C81.6758 74.2114 81.1324 74.2488 80.6107 74.2488C80.6107 75.8548 80.1024 78.0536 79.0363 78.9798C78.6681 79.2996 78.1985 79.498 77.7009 79.668C77.0527 79.8894 76.4433 79.9946 75.8812 79.9946ZM95.6981 74.1915C95.0892 74.1915 94.6111 74.0366 94.2665 73.7299C93.922 73.4201 93.6784 73.0002 93.5388 72.4641C93.3072 72.9823 92.9982 73.3993 92.6121 73.715C92.226 74.0337 91.73 74.1915 91.1211 74.1915C90.6964 74.1915 90.2954 74.1111 89.9152 73.9503C89.535 73.7924 89.1905 73.5512 88.8846 73.2325C88.543 72.8662 88.2846 72.4343 88.1153 71.9399C87.943 71.4455 87.8569 70.9422 87.8569 70.43C87.8569 70.1232 87.8896 69.8164 87.952 69.5156C88.1628 68.6311 88.546 67.9133 89.1014 67.3593C89.6598 66.8054 90.3162 66.3229 91.0765 65.9119C91.4657 65.6945 91.8785 65.48 92.3121 65.2656C93.0606 64.9112 93.7675 64.5121 94.4328 64.0743C95.0952 63.6365 95.5734 63.1004 95.8645 62.472V71.0673C95.8645 71.3651 95.8852 71.6094 95.9327 71.7999C95.9803 71.9935 96.0723 72.1335 96.2149 72.2289C96.3575 72.3211 96.5654 72.3688 96.8386 72.3688C97.1149 72.3688 97.3525 72.2854 97.5426 72.1187C97.7327 71.9519 97.8812 71.7463 97.9851 71.4962C98.0891 71.246 98.1515 70.9839 98.1693 70.7099H98.9534C98.8584 71.4783 98.6861 72.0889 98.4306 72.5416C98.2198 72.9317 97.9643 73.2593 97.6644 73.5273C97.1773 73.9711 96.5208 74.1915 95.6981 74.1915ZM91.8607 72.3926C92.0181 72.3926 92.1874 72.351 92.3745 72.2616C92.6626 72.1127 92.8675 71.8863 92.9864 71.5915C93.1051 71.2937 93.1646 70.9869 93.1646 70.6652V66.0429L92.6953 66.311C91.9884 66.719 91.4805 67.1538 91.1716 67.6125C90.7736 68.2111 90.5716 69.0331 90.5716 70.0815C90.5716 70.9422 90.7587 71.5974 91.13 72.0442C91.3201 72.2765 91.5637 72.3926 91.8607 72.3926ZM98.9444 59.678C99.4388 59.678 99.9733 59.7713 100.54 59.9622C100.97 60.1043 101.352 60.2973 101.692 60.5412C102.02 60.7937 102.282 61.1203 102.48 61.5191C102.675 61.92 102.809 62.342 102.881 62.7896C102.966 63.3983 103.006 63.9668 103.006 64.4929V64.5862L103.014 65.1398V70.627C103.014 70.9452 103.095 71.2506 103.255 71.5433C103.413 71.8339 103.672 72.0524 104.032 72.1988C104.257 72.2857 104.473 72.3281 104.682 72.3281C104.89 72.3281 105.104 72.2857 105.326 72.1988C105.684 72.0524 105.946 71.8339 106.106 71.5433C106.269 71.2506 106.349 70.9452 106.349 70.627V64.3995C106.349 64.1513 106.405 63.9498 106.515 63.7971C106.625 63.6444 106.766 63.5172 106.937 63.4153C107.108 63.3135 107.301 63.2159 107.509 63.1247C107.744 63.0272 107.971 62.9084 108.193 62.7747C108.415 62.639 108.61 62.4609 108.778 62.2381C108.778 67.1675 108.784 69.855 108.8 70.3025C108.811 70.7055 108.88 71.1445 109.003 71.6197C109.129 72.0969 109.358 72.5084 109.692 72.8563C110.026 73.2041 110.513 73.3887 111.149 73.4099C111.657 73.4099 112.079 73.3229 112.421 73.1469C112.763 72.9708 113.019 72.746 113.193 72.4745C113.364 72.203 113.452 71.9251 113.452 71.6388C113.452 71.2952 113.321 70.9834 113.062 70.7034C112.806 70.4234 112.413 70.2516 111.886 70.1859C111.801 70.1773 111.721 70.1731 111.643 70.1731C111.403 70.1731 111.168 70.2113 110.938 70.2877C110.708 70.364 110.499 70.4807 110.312 70.6398C110.192 70.4192 110.131 70.2134 110.131 70.0225C110.131 69.7574 110.224 69.5262 110.414 69.3246C110.601 69.1231 110.849 68.9662 111.157 68.8559C111.464 68.7435 111.793 68.6883 112.143 68.6883C112.493 68.6883 112.84 68.752 113.185 68.8793C113.53 69.0086 113.832 69.2144 114.094 69.4986C114.353 69.7828 114.543 70.1519 114.657 70.6079C114.687 70.7564 114.703 70.9049 114.703 71.0555C114.703 71.3164 114.666 71.5667 114.585 71.8063C114.321 72.5699 113.797 73.1702 113.019 73.6092C112.242 74.0483 111.395 74.2668 110.475 74.2668C109.708 74.2668 109.003 74.1119 108.362 73.8023C107.611 73.412 107.071 72.8987 106.742 72.2603C106.245 72.5254 105.756 72.7566 105.272 72.9538C104.791 73.1511 104.375 73.3484 104.024 73.5477C103.674 73.745 103.45 73.9762 103.351 74.2371C102.568 73.8065 101.98 73.3908 101.587 72.9899C101.192 72.5912 100.927 72.1563 100.796 71.6897C100.663 71.2209 100.593 70.6652 100.588 70.0225C100.588 69.7828 100.599 69.541 100.62 69.2971V65.1398L100.604 64.3443C100.604 63.8014 100.585 63.2838 100.548 62.7896C100.486 62.0621 100.283 61.5064 99.9386 61.1246C99.7595 60.9336 99.5564 60.7746 99.3266 60.6431C99.0967 60.5137 98.8723 60.4162 98.6531 60.3504C98.434 60.2867 98.2015 60.2485 97.9584 60.2337C97.7125 60.2189 97.5094 60.2104 97.3464 60.2104C97.3571 60.1701 97.3838 60.1234 97.4292 60.0746C97.4747 60.0258 97.5628 59.9707 97.6965 59.9134C97.8274 59.8562 97.9984 59.801 98.2069 59.7522C98.4179 59.7013 98.6612 59.678 98.9444 59.678Z" fill="#A67C36"/>
</svg>
